<!--?xml version="1.0" encoding="utf-8"?--><!-- Generator: Iparigrafika Gear Generator by Abel Vincze http://geargenerator.com/ -->
<svg version="1.2" class="svggear" 
    xmlns="http://www.w3.org/2000/svg" 
    xmlns:xlink="http://www.w3.org/1999/xlink" x="0px" y="0px" width="118px" height="118px" viewBox="-59 -59 118 118" overflow="scroll" xml:space="preserve">
    <polygon id="gearpoly2" data-id="2" class="gear" fill="#ddd" stroke="#444" stroke-width="1" stroke-miterlimit="10" points="40.417,0 46.992,0 47.035,-0.002 47.119,-0.007 47.242,-0.018 47.403,-0.037 47.604,-0.068 47.843,-0.11 48.119,-0.168 48.432,-0.244 48.781,-0.338 49.165,-0.455 49.584,-0.595 50.035,-0.761 50.519,-0.955 51.033,-1.178 51.576,-1.434 52.147,-1.723 52.744,-2.047 53.367,-2.409 54.012,-2.809 54.678,-3.25 55.364,-3.734 56.067,-4.26 56.785,-4.832 57.517,-5.45 58.015,-6.09 57.378,-10.512 56.721,-10.986 55.844,-11.373 54.994,-11.719 54.17,-12.026 53.376,-12.296 52.613,-12.532 51.881,-12.734 51.182,-12.906 50.518,-13.049 49.888,-13.165 49.295,-13.257 48.739,-13.326 48.22,-13.376 47.74,-13.408 47.299,-13.424 46.898,-13.428 46.536,-13.42 46.214,-13.404 45.933,-13.382 45.692,-13.356 45.491,-13.328 45.33,-13.301 45.21,-13.277 45.128,-13.259 45.086,-13.248 38.777,-11.394 35.002,-20.208 40.696,-23.496 40.733,-23.519 40.803,-23.565 40.903,-23.636 41.034,-23.734 41.192,-23.86 41.378,-24.017 41.588,-24.205 41.821,-24.427 42.076,-24.684 42.351,-24.977 42.643,-25.307 42.951,-25.677 43.273,-26.086 43.607,-26.537 43.949,-27.03 44.299,-27.565 44.655,-28.145 45.012,-28.769 45.371,-29.439 45.727,-30.154 46.079,-30.915 46.425,-31.723 46.761,-32.577 47.086,-33.479 47.197,-34.281 44.435,-37.793 43.629,-37.875 42.676,-37.771 41.767,-37.645 40.9,-37.5 40.077,-37.337 39.298,-37.159 38.563,-36.968 37.872,-36.768 37.225,-36.559 36.622,-36.345 36.062,-36.128 35.546,-35.91 35.072,-35.694 34.64,-35.482 34.25,-35.275 33.901,-35.078 33.591,-34.89 33.321,-34.715 33.088,-34.556 32.893,-34.412 32.733,-34.288 32.607,-34.184 32.514,-34.103 32.453,-34.046 32.422,-34.016 27.885,-29.256 20.208,-35.002 23.496,-40.696 23.516,-40.735 23.554,-40.809 23.605,-40.921 23.669,-41.071 23.743,-41.26 23.826,-41.488 23.914,-41.756 24.005,-42.065 24.097,-42.415 24.189,-42.806 24.277,-43.238 24.359,-43.712 24.433,-44.228 24.496,-44.785 24.546,-45.383 24.582,-46.022 24.599,-46.702 24.597,-47.421 24.573,-48.18 24.524,-48.978 24.448,-49.813 24.344,-50.685 24.208,-51.594 24.039,-52.537 23.733,-53.287 19.585,-54.947 18.846,-54.615 18.073,-54.049 17.348,-53.485 16.671,-52.926 16.039,-52.373 15.454,-51.83 14.912,-51.297 14.414,-50.778 13.958,-50.274 13.543,-49.787 13.167,-49.319 12.828,-48.872 12.526,-48.448 12.259,-48.048 12.024,-47.675 11.82,-47.329 11.646,-47.012 11.499,-46.725 11.378,-46.47 11.28,-46.248 11.203,-46.06 11.146,-45.908 11.106,-45.791 11.082,-45.711 11.07,-45.669 9.521,-39.279 0,-40.417 0,-46.992 -0.002,-47.035 -0.007,-47.119 -0.018,-47.242 -0.037,-47.403 -0.068,-47.604 -0.11,-47.843 -0.168,-48.119 -0.244,-48.432 -0.338,-48.781 -0.455,-49.165 -0.595,-49.584 -0.761,-50.035 -0.955,-50.519 -1.178,-51.033 -1.434,-51.576 -1.723,-52.147 -2.047,-52.744 -2.409,-53.367 -2.809,-54.012 -3.25,-54.678 -3.734,-55.364 -4.26,-56.067 -4.832,-56.785 -5.45,-57.517 -6.09,-58.015 -10.512,-57.378 -10.986,-56.721 -11.373,-55.844 -11.719,-54.994 -12.026,-54.17 -12.296,-53.376 -12.532,-52.613 -12.734,-51.881 -12.906,-51.182 -13.049,-50.518 -13.165,-49.888 -13.257,-49.295 -13.326,-48.739 -13.376,-48.22 -13.408,-47.74 -13.424,-47.299 -13.428,-46.898 -13.42,-46.536 -13.404,-46.214 -13.382,-45.933 -13.356,-45.692 -13.328,-45.491 -13.301,-45.33 -13.277,-45.21 -13.259,-45.128 -13.248,-45.086 -11.394,-38.777 -20.208,-35.002 -23.496,-40.696 -23.519,-40.733 -23.565,-40.803 -23.636,-40.903 -23.734,-41.034 -23.86,-41.192 -24.017,-41.378 -24.205,-41.588 -24.427,-41.821 -24.684,-42.076 -24.977,-42.351 -25.307,-42.643 -25.677,-42.951 -26.086,-43.273 -26.537,-43.607 -27.03,-43.949 -27.565,-44.299 -28.145,-44.655 -28.769,-45.012 -29.439,-45.371 -30.154,-45.727 -30.915,-46.079 -31.723,-46.425 -32.577,-46.761 -33.479,-47.086 -34.281,-47.197 -37.793,-44.435 -37.875,-43.629 -37.771,-42.676 -37.645,-41.767 -37.5,-40.9 -37.337,-40.077 -37.159,-39.298 -36.968,-38.563 -36.768,-37.872 -36.559,-37.225 -36.345,-36.622 -36.128,-36.062 -35.91,-35.546 -35.694,-35.072 -35.482,-34.64 -35.275,-34.25 -35.078,-33.901 -34.89,-33.591 -34.715,-33.321 -34.556,-33.088 -34.412,-32.893 -34.288,-32.733 -34.184,-32.607 -34.103,-32.514 -34.046,-32.453 -34.016,-32.422 -29.256,-27.885 -35.002,-20.208 -40.696,-23.496 -40.735,-23.516 -40.809,-23.554 -40.921,-23.605 -41.071,-23.669 -41.26,-23.743 -41.488,-23.826 -41.756,-23.914 -42.065,-24.005 -42.415,-24.097 -42.806,-24.189 -43.238,-24.277 -43.712,-24.359 -44.228,-24.433 -44.785,-24.496 -45.383,-24.546 -46.022,-24.582 -46.702,-24.599 -47.421,-24.597 -48.18,-24.573 -48.978,-24.524 -49.813,-24.448 -50.685,-24.344 -51.594,-24.208 -52.537,-24.039 -53.287,-23.733 -54.947,-19.585 -54.615,-18.846 -54.049,-18.073 -53.485,-17.348 -52.926,-16.671 -52.373,-16.039 -51.83,-15.454 -51.297,-14.912 -50.778,-14.414 -50.274,-13.958 -49.787,-13.543 -49.319,-13.167 -48.872,-12.828 -48.448,-12.526 -48.048,-12.259 -47.675,-12.024 -47.329,-11.82 -47.012,-11.646 -46.725,-11.499 -46.47,-11.378 -46.248,-11.28 -46.06,-11.203 -45.908,-11.146 -45.791,-11.106 -45.711,-11.082 -45.669,-11.07 -39.279,-9.521 -40.417,0 -46.992,0 -47.035,0.002 -47.119,0.007 -47.242,0.018 -47.403,0.037 -47.604,0.068 -47.843,0.11 -48.119,0.168 -48.432,0.244 -48.781,0.338 -49.165,0.455 -49.584,0.595 -50.035,0.761 -50.519,0.955 -51.033,1.178 -51.576,1.434 -52.147,1.723 -52.744,2.047 -53.367,2.409 -54.012,2.809 -54.678,3.25 -55.364,3.734 -56.067,4.26 -56.785,4.832 -57.517,5.45 -58.015,6.09 -57.378,10.512 -56.721,10.986 -55.844,11.373 -54.994,11.719 -54.17,12.026 -53.376,12.296 -52.613,12.532 -51.881,12.734 -51.182,12.906 -50.518,13.049 -49.888,13.165 -49.295,13.257 -48.739,13.326 -48.22,13.376 -47.74,13.408 -47.299,13.424 -46.898,13.428 -46.536,13.42 -46.214,13.404 -45.933,13.382 -45.692,13.356 -45.491,13.328 -45.33,13.301 -45.21,13.277 -45.128,13.259 -45.086,13.248 -38.777,11.394 -35.002,20.208 -40.696,23.496 -40.733,23.519 -40.803,23.565 -40.903,23.636 -41.034,23.734 -41.192,23.86 -41.378,24.017 -41.588,24.205 -41.821,24.427 -42.076,24.684 -42.351,24.977 -42.643,25.307 -42.951,25.677 -43.273,26.086 -43.607,26.537 -43.949,27.03 -44.299,27.565 -44.655,28.145 -45.012,28.769 -45.371,29.439 -45.727,30.154 -46.079,30.915 -46.425,31.723 -46.761,32.577 -47.086,33.479 -47.197,34.281 -44.435,37.793 -43.629,37.875 -42.676,37.771 -41.767,37.645 -40.9,37.5 -40.077,37.337 -39.298,37.159 -38.563,36.968 -37.872,36.768 -37.225,36.559 -36.622,36.345 -36.062,36.128 -35.546,35.91 -35.072,35.694 -34.64,35.482 -34.25,35.275 -33.901,35.078 -33.591,34.89 -33.321,34.715 -33.088,34.556 -32.893,34.412 -32.733,34.288 -32.607,34.184 -32.514,34.103 -32.453,34.046 -32.422,34.016 -27.885,29.256 -20.208,35.002 -23.496,40.696 -23.516,40.735 -23.554,40.809 -23.605,40.921 -23.669,41.071 -23.743,41.26 -23.826,41.488 -23.914,41.756 -24.005,42.065 -24.097,42.415 -24.189,42.806 -24.277,43.238 -24.359,43.712 -24.433,44.228 -24.496,44.785 -24.546,45.383 -24.582,46.022 -24.599,46.702 -24.597,47.421 -24.573,48.18 -24.524,48.978 -24.448,49.813 -24.344,50.685 -24.208,51.594 -24.039,52.537 -23.733,53.287 -19.585,54.947 -18.846,54.615 -18.073,54.049 -17.348,53.485 -16.671,52.926 -16.039,52.373 -15.454,51.83 -14.912,51.297 -14.414,50.778 -13.958,50.274 -13.543,49.787 -13.167,49.319 -12.828,48.872 -12.526,48.448 -12.259,48.048 -12.024,47.675 -11.82,47.329 -11.646,47.012 -11.499,46.725 -11.378,46.47 -11.28,46.248 -11.203,46.06 -11.146,45.908 -11.106,45.791 -11.082,45.711 -11.07,45.669 -9.521,39.279 0,40.417 0,46.992 0.002,47.035 0.007,47.119 0.018,47.242 0.037,47.403 0.068,47.604 0.11,47.843 0.168,48.119 0.244,48.432 0.338,48.781 0.455,49.165 0.595,49.584 0.761,50.035 0.955,50.519 1.178,51.033 1.434,51.576 1.723,52.147 2.047,52.744 2.409,53.367 2.809,54.012 3.25,54.678 3.734,55.364 4.26,56.067 4.832,56.785 5.45,57.517 6.09,58.015 10.512,57.378 10.986,56.721 11.373,55.844 11.719,54.994 12.026,54.17 12.296,53.376 12.532,52.613 12.734,51.881 12.906,51.182 13.049,50.518 13.165,49.888 13.257,49.295 13.326,48.739 13.376,48.22 13.408,47.74 13.424,47.299 13.428,46.898 13.42,46.536 13.404,46.214 13.382,45.933 13.356,45.692 13.328,45.491 13.301,45.33 13.277,45.21 13.259,45.128 13.248,45.086 11.394,38.777 20.208,35.002 23.496,40.696 23.519,40.733 23.565,40.803 23.636,40.903 23.734,41.034 23.86,41.192 24.017,41.378 24.205,41.588 24.427,41.821 24.684,42.076 24.977,42.351 25.307,42.643 25.677,42.951 26.086,43.273 26.537,43.607 27.03,43.949 27.565,44.299 28.145,44.655 28.769,45.012 29.439,45.371 30.154,45.727 30.915,46.079 31.723,46.425 32.577,46.761 33.479,47.086 34.281,47.197 37.793,44.435 37.875,43.629 37.771,42.676 37.645,41.767 37.5,40.9 37.337,40.077 37.159,39.298 36.968,38.563 36.768,37.872 36.559,37.225 36.345,36.622 36.128,36.062 35.91,35.546 35.694,35.072 35.482,34.64 35.275,34.25 35.078,33.901 34.89,33.591 34.715,33.321 34.556,33.088 34.412,32.893 34.288,32.733 34.184,32.607 34.103,32.514 34.046,32.453 34.016,32.422 29.256,27.885 35.002,20.208 40.696,23.496 40.735,23.516 40.809,23.554 40.921,23.605 41.071,23.669 41.26,23.743 41.488,23.826 41.756,23.914 42.065,24.005 42.415,24.097 42.806,24.189 43.238,24.277 43.712,24.359 44.228,24.433 44.785,24.496 45.383,24.546 46.022,24.582 46.702,24.599 47.421,24.597 48.18,24.573 48.978,24.524 49.813,24.448 50.685,24.344 51.594,24.208 52.537,24.039 53.287,23.733 54.947,19.585 54.615,18.846 54.049,18.073 53.485,17.348 52.926,16.671 52.373,16.039 51.83,15.454 51.297,14.912 50.778,14.414 50.274,13.958 49.787,13.543 49.319,13.167 48.872,12.828 48.448,12.526 48.048,12.259 47.675,12.024 47.329,11.82 47.012,11.646 46.725,11.499 46.47,11.378 46.248,11.28 46.06,11.203 45.908,11.146 45.791,11.106 45.711,11.082 45.669,11.07 39.279,9.521 "></polygon>
    <g class="guides">
        <polyline fill="none" stroke="#444" stroke-width="0.5" stroke-miterlimit="10" points="10,0 -10,0"></polyline>
        <polyline fill="none" stroke="#444" stroke-width="0.5" stroke-miterlimit="10" points="0,10 0,-10"></polyline>
    </g>
    <circle fill="#c00" class="firstmarker" stroke="none" stroke-miterlimit="10" cx="49.49" cy="-7.121" r="3.271"></circle>
    <g class="geartext">
        <g class="text">
            <polyline fill="none" stroke="#444" stroke-width="0.5" stroke-linecap="square" stroke-miterlimit="1" points="-18.97 -24.26 -19.72 -23.65 -20.45 -23.03 -21.15 -22.38 -21.84 -21.71 "></polyline>
            <polyline fill="none" stroke="#444" stroke-width="0.5" stroke-linecap="square" stroke-miterlimit="1" points="-19.17 -21.59 -21.72 -24.47 "></polyline>
            <polyline fill="none" stroke="#444" stroke-width="0.5" stroke-linecap="square" stroke-miterlimit="1" points="-20.15 -25.78 -20.33 -24.39 -20.45 -23.03 -20.49 -21.68 -20.48 -20.35 "></polyline>
            <polyline fill="none" stroke="#444" stroke-width="0.5" stroke-linecap="square" stroke-miterlimit="1" points="-17.78 -22.74 -19.1 -22.92 -20.45 -23.03 -21.82 -23.08 -23.21 -23.06 "></polyline>
            <polyline fill="none" stroke="#444" stroke-width="0.5" stroke-linecap="square" stroke-miterlimit="1" points="-12.79 -24.8 -13.56 -24.39 -14.31 -23.96 -15.06 -23.5 -15.78 -23.02 -16.87 -24.6 -16.61 -25.93 -15.79 -26.43 -14.96 -26.92 -14.55 -28.22 -14.99 -29.08 -16.36 -29.44 -17.28 -28.91 -18.17 -28.36 -18.5 -26.98 "></polyline>
            <polyline fill="none" stroke="#444" stroke-width="0.5" stroke-linecap="square" stroke-miterlimit="1" points="-4.44 -33.39 -3.68 -27.66 -4.78 -28.96 -5.96 -30.21 -7.23 -31.42 -8.57 -32.57 -7.1 -26.99 "></polyline>
            <polyline fill="none" stroke="#444" stroke-width="0.5" stroke-linecap="square" stroke-miterlimit="1" points="1.75 -31.71 0.76 -31.75 -0.23 -31.76 -1.22 -31.73 -2.22 -31.68 "></polyline>
            <polyline fill="none" stroke="#444" stroke-width="0.5" stroke-linecap="square" stroke-miterlimit="1" points="1.65 -29.79 0.71 -29.82 -0.22 -29.83 -1.15 -29.81 -2.08 -29.76 "></polyline>
            <polyline fill="none" stroke="#444" stroke-width="0.5" stroke-linecap="square" stroke-miterlimit="1" points="3.84 -32.49 5 -33.31 4.14 -27.6 "></polyline>
            <polyline fill="none" stroke="#444" stroke-width="0.5" stroke-linecap="square" stroke-miterlimit="1" points="5 -27.46 4.14 -27.6 3.28 -27.71 "></polyline>
            <polyline fill="none" stroke="#444" stroke-width="0.5" stroke-linecap="square" stroke-miterlimit="1" points="10.03 -26.04 9.21 -26.34 8.38 -26.62 7.55 -26.87 6.71 -27.09 7.17 -28.96 8.33 -29.65 9.25 -29.37 10.17 -29.07 11.41 -29.63 11.76 -30.53 11.12 -31.79 10.12 -32.12 9.11 -32.42 7.86 -31.76 "></polyline>
            <polyline fill="none" stroke="#444" stroke-width="0.5" stroke-linecap="square" stroke-miterlimit="1" points="17.04 -25.65 17.83 -25.1 18.61 -24.53 19.37 -23.94 20.73 -24.05 21.36 -24.78 21.18 -26.19 20.35 -26.83 19.51 -27.46 18.64 -28.05 15.44 -23.24 "></polyline>
            <polyline fill="none" stroke="#444" stroke-width="0.5" stroke-linecap="square" stroke-miterlimit="1" points="19.51 -19.96 22.2 -22.71 "></polyline>
            <polyline fill="none" stroke="#444" stroke-width="0.5" stroke-linecap="square" stroke-miterlimit="1" points="22.87 -23.4 23.54 -24.09 "></polyline>
            <polyline fill="none" stroke="#444" stroke-width="0.5" stroke-linecap="square" stroke-miterlimit="1" points="23.67 -16.52 22.37 -16.68 22.59 -17.97 26.36 -20.96 "></polyline>
            <polyline fill="none" stroke="#444" stroke-width="0.5" stroke-linecap="square" stroke-miterlimit="1" points="26.04 -18.18 25.46 -18.98 24.85 -19.77 24.22 -20.53 23.57 -21.28 "></polyline>
            <polyline fill="none" stroke="#444" stroke-width="0.5" stroke-linecap="square" stroke-miterlimit="1" points="25.46 -11.43 25.09 -12.22 24.7 -12.99 24.28 -13.76 24.66 -15.01 26.3 -16.01 27.63 -15.66 28.1 -14.79 28.55 -13.9 28.97 -13 "></polyline>
            <polyline fill="none" stroke="#444" stroke-width="0.5" stroke-linecap="square" stroke-miterlimit="1" points="27.93 -10.49 29.15 -9.92 30.37 -9.29 30.64 -8.34 29.95 -7.15 27.14 -6.48 "></polyline>
            <polyline fill="none" stroke="#444" stroke-width="0.5" stroke-linecap="square" stroke-miterlimit="1" points="26.12 -9.81 31.53 -11.85 "></polyline>
            <polyline fill="none" stroke="#444" stroke-width="0.5" stroke-linecap="square" stroke-miterlimit="1" points="27.9 -0.44 27.9 0.44 27.88 1.31 27.82 2.18 28.7 3.15 32.52 3.57 33.58 2.63 33.64 1.58 33.68 0.53 33.68 -0.53 "></polyline>
            <polyline fill="none" stroke="#444" stroke-width="0.5" stroke-linecap="square" stroke-miterlimit="1" points="33.68 0.53 27.9 0.44 "></polyline>
            <polyline fill="none" stroke="#444" stroke-width="0.5" stroke-linecap="square" stroke-miterlimit="1" points="30.37 9.29 30.64 8.34 30.89 7.37 31.1 6.41 31.29 5.43 "></polyline>
            <polyline fill="none" stroke="#444" stroke-width="0.5" stroke-linecap="square" stroke-miterlimit="1" points="28.53 8.73 28.79 7.83 29.02 6.93 29.22 6.02 29.39 5.1 "></polyline>
            <polyline fill="none" stroke="#444" stroke-width="0.5" stroke-linecap="square" stroke-miterlimit="1" points="30.63 11.51 31.14 12.82 25.8 10.63 "></polyline>
            <polyline fill="none" stroke="#444" stroke-width="0.5" stroke-linecap="square" stroke-miterlimit="1" points="25.46 11.43 25.8 10.63 26.12 9.81 "></polyline>
            <polyline fill="none" stroke="#444" stroke-width="0.5" stroke-linecap="square" stroke-miterlimit="1" points="24.69 18.41 24.1 19.17 23.49 19.91 22.86 20.64 22.89 22.01 23.59 22.67 25 22.57 25.69 21.78 26.36 20.96 27 20.13 22.37 16.68 "></polyline>
            <polyline fill="none" stroke="#444" stroke-width="0.5" stroke-linecap="square" stroke-miterlimit="1" points="18.39 25.89 19.19 25.3 19.97 24.69 20.73 24.05 21.48 23.39 "></polyline>
            <polyline fill="none" stroke="#444" stroke-width="0.5" stroke-linecap="square" stroke-miterlimit="1" points="17.28 24.32 18.03 23.77 18.76 23.19 19.48 22.6 20.17 21.98 "></polyline>
            <polyline fill="none" stroke="#444" stroke-width="0.5" stroke-linecap="square" stroke-miterlimit="1" points="17.25 27.8 16.85 29.16 13.96 24.16 "></polyline>
            <polyline fill="none" stroke="#444" stroke-width="0.5" stroke-linecap="square" stroke-miterlimit="1" points="13.2 24.59 13.96 24.16 14.71 23.72 "></polyline>
            <polyline fill="none" stroke="#444" stroke-width="0.5" stroke-linecap="square" stroke-miterlimit="1" points="8.38 26.62 9.21 26.34 10.03 26.04 10.84 25.72 11.64 25.36 12.44 27.11 11.96 28.38 11.07 28.74 10.17 29.07 9.54 30.29 9.83 31.21 11.12 31.79 12.11 31.43 13.08 31.04 13.64 29.74 "></polyline>
            <polyline fill="none" stroke="#444" stroke-width="0.5" stroke-linecap="square" stroke-miterlimit="1" points="2.66 30.68 1.7 30.75 0.74 30.78 -0.23 30.79 -1.22 31.73 -1.26 32.69 -0.25 33.68 0.81 33.67 1.86 33.63 2.91 33.55 2.41 27.8 "></polyline>
            <polyline fill="none" stroke="#444" stroke-width="0.5" stroke-linecap="square" stroke-miterlimit="1" points="-2.82 27.76 -3.01 29.68 -4.19 31.48 -5.48 33.23 -6.15 31.16 -6.69 29.07 -6.26 27.2 "></polyline>
            <polyline fill="none" stroke="#444" stroke-width="0.5" stroke-linecap="square" stroke-miterlimit="1" points="-3.01 29.68 -3.94 29.57 -4.86 29.43 -5.78 29.27 -6.69 29.07 "></polyline>
            <polyline fill="none" stroke="#444" stroke-width="0.5" stroke-linecap="square" stroke-miterlimit="1" points="-12.76 29.08 -11.85 29.46 -10.92 29.82 -9.98 30.15 -9.04 30.44 "></polyline>
            <polyline fill="none" stroke="#444" stroke-width="0.5" stroke-linecap="square" stroke-miterlimit="1" points="-11.99 27.32 -11.13 27.68 -10.26 28.01 -9.38 28.32 -8.49 28.6 "></polyline>
            <polyline fill="none" stroke="#444" stroke-width="0.5" stroke-linecap="square" stroke-miterlimit="1" points="-15.78 23.02 -15.06 23.5 -14.31 23.96 -13.56 24.39 -12.79 24.8 -13.67 26.51 -14.96 26.92 -15.79 26.43 -16.61 25.93 -17.96 26.19 -18.5 26.98 -18.17 28.36 -17.28 28.91 -16.36 29.44 -14.99 29.08 "></polyline>
            <polyline fill="none" stroke="#444" stroke-width="0.5" stroke-linecap="square" stroke-miterlimit="1" points="-19.83 20.98 -18.53 20.87 -17.87 21.44 -17.78 22.74 -20.15 25.78 -21.56 25.87 -22.36 25.19 -22.48 23.78 -19.83 20.98 "></polyline>
        </g>
    </g>
    <g class="guides gearguides" opacity="0.2">
        <circle class="pitch" fill="none" stroke="#f00" stroke-miterlimit="10" cx="0" cy="0" r="50"></circle>
        <circle class="outer" fill="none" stroke="#ccc" stroke-miterlimit="10" stroke-dasharray="2,2" cx="0" cy="0" r="58.33"></circle>
        <circle class="base" fill="none" stroke="#00f" stroke-miterlimit="10" stroke-dasharray="2,2" cx="0" cy="0" r="46.98"></circle>
    </g>
</svg>