<!--?xml version="1.0" encoding="utf-8"?--><!-- Generator: Iparigrafika Gear Generator by Abel Vincze http://geargenerator.com/ -->
<svg version="1.2" class="svggear" 
    xmlns="http://www.w3.org/2000/svg" 
    xmlns:xlink="http://www.w3.org/1999/xlink" x="0px" y="0px" width="518px" height="518px" viewBox="-259 -259 518 518" overflow="scroll" xml:space="preserve">
    <polygon id="gearpoly3" data-id="3" class="gear" fill="#ddd" stroke="#444" stroke-width="1" stroke-miterlimit="10" points="240.417,0 240.893,-0.91 241.198,-0.982 241.511,-1.057 241.832,-1.136 242.16,-1.218 242.494,-1.305 242.836,-1.396 243.186,-1.49 243.542,-1.589 243.905,-1.692 244.276,-1.799 244.653,-1.911 245.037,-2.027 245.429,-2.148 245.827,-2.274 246.232,-2.404 246.643,-2.539 247.062,-2.679 247.487,-2.824 247.919,-2.974 248.357,-3.13 248.802,-3.29 249.254,-3.456 249.712,-3.627 250.177,-3.804 250.647,-3.986 251.125,-4.174 251.608,-4.368 252.098,-4.568 252.594,-4.773 253.095,-4.984 253.604,-5.202 254.118,-5.425 254.638,-5.655 255.164,-5.891 255.695,-6.133 256.233,-6.382 256.776,-6.637 257.325,-6.899 257.88,-7.168 258.226,-7.437 257.976,-13.587 257.609,-13.827 257.034,-14.049 256.466,-14.266 255.903,-14.476 255.347,-14.68 254.798,-14.878 254.254,-15.071 253.717,-15.258 253.187,-15.439 252.663,-15.614 252.145,-15.784 251.634,-15.948 251.13,-16.107 250.632,-16.261 250.141,-16.409 249.657,-16.553 249.18,-16.691 248.71,-16.825 248.246,-16.953 247.789,-17.077 247.34,-17.196 246.897,-17.311 246.462,-17.421 246.033,-17.526 245.612,-17.627 245.197,-17.724 244.79,-17.817 244.391,-17.906 243.998,-17.99 243.613,-18.071 243.235,-18.148 242.865,-18.221 242.501,-18.291 242.146,-18.357 241.797,-18.419 241.457,-18.478 241.123,-18.534 240.798,-18.587 240.479,-18.636 240.169,-18.682 239.62,-19.551 239.1,-25.13 239.478,-26.085 239.774,-26.188 240.078,-26.296 240.388,-26.408 240.706,-26.524 241.03,-26.645 241.36,-26.771 241.698,-26.902 242.042,-27.037 242.392,-27.178 242.749,-27.323 243.113,-27.474 243.483,-27.63 243.86,-27.791 244.242,-27.957 244.631,-28.129 245.027,-28.307 245.428,-28.49 245.836,-28.678 246.25,-28.873 246.67,-29.073 247.096,-29.279 247.527,-29.491 247.965,-29.709 248.408,-29.934 248.858,-30.164 249.312,-30.401 249.773,-30.644 250.239,-30.894 250.711,-31.15 251.188,-31.413 251.671,-31.682 252.158,-31.958 252.652,-32.241 253.15,-32.531 253.654,-32.827 254.162,-33.131 254.676,-33.441 255.195,-33.759 255.718,-34.084 256.034,-34.388 255.142,-40.478 254.752,-40.678 254.158,-40.84 253.57,-40.995 252.988,-41.146 252.414,-41.291 251.847,-41.431 251.286,-41.565 250.732,-41.695 250.186,-41.819 249.646,-41.939 249.114,-42.054 248.589,-42.164 248.07,-42.269 247.56,-42.37 247.056,-42.466 246.559,-42.559 246.07,-42.646 245.588,-42.73 245.114,-42.809 244.647,-42.885 244.187,-42.956 243.735,-43.024 243.29,-43.087 242.853,-43.148 242.424,-43.204 242.002,-43.257 241.587,-43.307 241.18,-43.353 240.781,-43.397 240.389,-43.437 240.006,-43.474 239.629,-43.508 239.261,-43.539 238.9,-43.567 238.547,-43.593 238.202,-43.616 237.865,-43.637 237.536,-43.655 237.214,-43.671 236.9,-43.685 236.264,-44.491 235.163,-49.985 235.439,-50.974 235.724,-51.108 236.014,-51.247 236.311,-51.39 236.614,-51.539 236.924,-51.694 237.24,-51.854 237.562,-52.019 237.89,-52.189 238.224,-52.366 238.564,-52.548 238.909,-52.736 239.261,-52.929 239.619,-53.129 239.982,-53.334 240.351,-53.546 240.726,-53.764 241.106,-53.988 241.492,-54.218 241.883,-54.455 242.28,-54.698 242.681,-54.947 243.089,-55.203 243.501,-55.466 243.919,-55.736 244.341,-56.012 244.769,-56.295 245.202,-56.585 245.639,-56.882 246.081,-57.186 246.528,-57.497 246.98,-57.815 247.437,-58.141 247.897,-58.474 248.363,-58.814 248.833,-59.161 249.307,-59.516 249.785,-59.879 250.268,-60.249 250.754,-60.627 251.037,-60.963 249.514,-66.926 249.105,-67.084 248.496,-67.183 247.895,-67.276 247.302,-67.365 246.715,-67.449 246.136,-67.529 245.565,-67.604 245.001,-67.675 244.444,-67.742 243.895,-67.804 243.353,-67.863 242.82,-67.917 242.293,-67.968 241.775,-68.015 241.263,-68.058 240.76,-68.098 240.264,-68.134 239.777,-68.167 239.296,-68.196 238.824,-68.222 238.359,-68.245 237.903,-68.265 237.454,-68.282 237.013,-68.296 236.58,-68.308 236.154,-68.316 235.737,-68.322 235.327,-68.326 234.926,-68.327 234.532,-68.326 234.147,-68.323 233.769,-68.317 233.399,-68.31 233.038,-68.3 232.684,-68.289 232.338,-68.276 232.001,-68.261 231.671,-68.245 231.35,-68.227 231.036,-68.208 230.319,-68.943 228.65,-74.293 228.821,-75.305 229.09,-75.468 229.365,-75.636 229.645,-75.81 229.931,-75.99 230.223,-76.176 230.52,-76.368 230.823,-76.566 231.131,-76.77 231.445,-76.98 231.764,-77.197 232.088,-77.42 232.418,-77.649 232.753,-77.885 233.092,-78.127 233.437,-78.376 233.787,-78.632 234.142,-78.894 234.501,-79.164 234.866,-79.44 235.235,-79.723 235.608,-80.013 235.987,-80.311 236.369,-80.615 236.756,-80.927 237.148,-81.246 237.544,-81.572 237.944,-81.905 238.348,-82.246 238.756,-82.595 239.168,-82.951 239.584,-83.315 240.004,-83.686 240.427,-84.066 240.855,-84.453 241.285,-84.847 241.72,-85.25 242.158,-85.661 242.599,-86.08 243.043,-86.506 243.29,-86.869 241.151,-92.641 240.728,-92.755 240.113,-92.79 239.505,-92.82 238.905,-92.846 238.313,-92.868 237.729,-92.887 237.153,-92.902 236.585,-92.914 236.024,-92.922 235.471,-92.927 234.927,-92.928 234.39,-92.927 233.861,-92.922 233.341,-92.915 232.828,-92.904 232.323,-92.891 231.826,-92.875 231.338,-92.857 230.857,-92.836 230.385,-92.812 229.92,-92.787 229.464,-92.759 229.016,-92.729 228.575,-92.697 228.143,-92.663 227.72,-92.627 227.304,-92.589 226.896,-92.55 226.497,-92.509 226.105,-92.467 225.722,-92.424 225.347,-92.379 224.98,-92.332 224.622,-92.285 224.271,-92.237 223.929,-92.188 223.595,-92.138 223.268,-92.087 222.951,-92.036 222.641,-91.984 221.851,-92.641 219.632,-97.786 219.696,-98.811 219.946,-99.001 220.202,-99.197 220.463,-99.399 220.728,-99.608 220.999,-99.823 221.275,-100.045 221.555,-100.274 221.84,-100.509 222.13,-100.751 222.425,-101 222.724,-101.255 223.028,-101.518 223.336,-101.787 223.649,-102.064 223.966,-102.348 224.287,-102.639 224.613,-102.937 224.942,-103.242 225.275,-103.555 225.613,-103.875 225.954,-104.203 226.299,-104.538 226.648,-104.881 227,-105.231 227.356,-105.589 227.716,-105.955 228.079,-106.329 228.445,-106.71 228.814,-107.099 229.187,-107.497 229.563,-107.902 229.941,-108.315 230.323,-108.737 230.707,-109.166 231.095,-109.604 231.485,-110.05 231.877,-110.504 232.272,-110.966 232.67,-111.437 232.877,-111.824 230.146,-117.34 229.713,-117.41 229.098,-117.38 228.491,-117.346 227.891,-117.31 227.3,-117.27 226.718,-117.228 226.143,-117.182 225.576,-117.135 225.018,-117.084 224.468,-117.031 223.926,-116.976 223.393,-116.918 222.867,-116.858 222.35,-116.796 221.841,-116.732 221.341,-116.667 220.848,-116.599 220.364,-116.529 219.888,-116.458 219.421,-116.386 218.962,-116.312 218.511,-116.236 218.068,-116.16 217.634,-116.082 217.208,-116.003 216.79,-115.923 216.38,-115.842 215.979,-115.76 215.586,-115.678 215.201,-115.595 214.825,-115.512 214.457,-115.428 214.097,-115.344 213.745,-115.259 213.401,-115.174 213.066,-115.09 212.739,-115.005 212.42,-114.921 212.109,-114.837 211.806,-114.753 210.952,-115.323 208.207,-120.208 208.164,-121.234 208.393,-121.449 208.627,-121.671 208.865,-121.899 209.107,-122.135 209.354,-122.377 209.605,-122.627 209.86,-122.883 210.119,-123.147 210.382,-123.418 210.649,-123.696 210.92,-123.982 211.195,-124.275 211.473,-124.575 211.755,-124.883 212.041,-125.198 212.33,-125.521 212.622,-125.851 212.918,-126.189 213.217,-126.535 213.519,-126.889 213.824,-127.251 214.132,-127.62 214.443,-127.997 214.757,-128.383 215.074,-128.776 215.393,-129.177 215.715,-129.587 216.039,-130.004 216.366,-130.43 216.695,-130.864 217.026,-131.307 217.36,-131.757 217.695,-132.216 218.033,-132.684 218.372,-133.159 218.713,-133.644 219.056,-134.136 219.401,-134.638 219.747,-135.148 219.912,-135.554 216.62,-140.754 216.182,-140.779 215.573,-140.684 214.973,-140.587 214.381,-140.488 213.797,-140.387 213.222,-140.284 212.655,-140.179 212.097,-140.072 211.547,-139.963 211.005,-139.853 210.472,-139.742 209.947,-139.629 209.431,-139.514 208.923,-139.399 208.424,-139.282 207.933,-139.164 207.451,-139.045 206.976,-138.925 206.511,-138.805 206.053,-138.684 205.604,-138.562 205.164,-138.44 204.732,-138.317 204.308,-138.195 203.892,-138.072 203.485,-137.948 203.086,-137.825 202.696,-137.702 202.313,-137.579 201.939,-137.456 201.574,-137.334 201.216,-137.212 200.867,-137.091 200.526,-136.97 200.193,-136.85 199.868,-136.731 199.552,-136.612 199.244,-136.495 198.943,-136.379 198.651,-136.264 197.742,-136.742 194.501,-141.313 194.351,-142.329 194.557,-142.567 194.766,-142.812 194.979,-143.064 195.195,-143.323 195.415,-143.59 195.639,-143.865 195.865,-144.146 196.096,-144.436 196.329,-144.733 196.565,-145.037 196.805,-145.35 197.048,-145.67 197.293,-145.997 197.541,-146.333 197.792,-146.676 198.046,-147.028 198.302,-147.387 198.561,-147.754 198.822,-148.129 199.086,-148.513 199.351,-148.904 199.619,-149.304 199.889,-149.712 200.161,-150.128 200.435,-150.552 200.71,-150.984 200.988,-151.425 201.267,-151.875 201.547,-152.332 201.829,-152.798 202.112,-153.273 202.397,-153.756 202.682,-154.247 202.969,-154.747 203.257,-155.256 203.546,-155.773 203.835,-156.299 204.125,-156.834 204.416,-157.377 204.538,-157.798 200.721,-162.626 200.283,-162.605 199.687,-162.447 199.1,-162.288 198.521,-162.127 197.952,-161.966 197.39,-161.803 196.837,-161.639 196.293,-161.475 195.758,-161.309 195.231,-161.143 194.712,-160.976 194.202,-160.809 193.701,-160.641 193.208,-160.473 192.723,-160.305 192.247,-160.136 191.78,-159.968 191.321,-159.799 190.87,-159.631 190.428,-159.463 189.994,-159.295 189.569,-159.127 189.152,-158.96 188.743,-158.794 188.343,-158.628 187.951,-158.463 187.567,-158.299 187.192,-158.135 186.824,-157.973 186.465,-157.812 186.114,-157.652 185.771,-157.493 185.437,-157.336 185.11,-157.18 184.792,-157.026 184.481,-156.874 184.179,-156.723 183.884,-156.574 183.598,-156.427 183.319,-156.282 182.365,-156.662 178.664,-160.87 178.409,-161.865 178.589,-162.123 178.771,-162.388 178.956,-162.661 179.144,-162.942 179.335,-163.23 179.529,-163.526 179.725,-163.83 179.924,-164.142 180.125,-164.462 180.328,-164.79 180.534,-165.125 180.742,-165.469 180.951,-165.82 181.163,-166.18 181.377,-166.548 181.593,-166.924 181.81,-167.308 182.029,-167.7 182.249,-168.101 182.471,-168.509 182.695,-168.926 182.919,-169.352 183.145,-169.786 183.372,-170.228 183.6,-170.678 183.829,-171.137 184.058,-171.605 184.289,-172.081 184.52,-172.565 184.751,-173.058 184.984,-173.56 185.216,-174.07 185.449,-174.588 185.682,-175.116 185.915,-175.652 186.148,-176.196 186.381,-176.749 186.613,-177.311 186.846,-177.882 186.923,-178.314 182.622,-182.716 182.189,-182.649 181.613,-182.43 181.046,-182.21 180.487,-181.99 179.937,-181.77 179.396,-181.55 178.863,-181.329 178.339,-181.109 177.824,-180.888 177.317,-180.668 176.819,-180.448 176.329,-180.228 175.848,-180.009 175.375,-179.79 174.911,-179.572 174.455,-179.355 174.008,-179.138 173.569,-178.922 173.139,-178.708 172.717,-178.494 172.303,-178.282 171.897,-178.071 171.5,-177.861 171.111,-177.653 170.73,-177.446 170.357,-177.241 169.993,-177.037 169.636,-176.836 169.288,-176.636 168.948,-176.438 168.616,-176.243 168.291,-176.049 167.975,-175.858 167.666,-175.669 167.366,-175.482 167.073,-175.298 166.788,-175.116 166.511,-174.937 166.241,-174.761 165.979,-174.588 164.991,-174.866 160.87,-178.664 160.512,-179.627 160.664,-179.902 160.817,-180.185 160.973,-180.476 161.131,-180.775 161.291,-181.082 161.452,-181.396 161.616,-181.719 161.78,-182.05 161.947,-182.389 162.115,-182.736 162.285,-183.091 162.455,-183.455 162.627,-183.827 162.8,-184.206 162.975,-184.594 163.15,-184.991 163.326,-185.396 163.502,-185.809 163.68,-186.23 163.858,-186.66 164.036,-187.098 164.215,-187.544 164.394,-187.999 164.574,-188.463 164.753,-188.935 164.933,-189.415 165.112,-189.904 165.292,-190.401 165.471,-190.907 165.65,-191.422 165.828,-191.945 166.006,-192.476 166.183,-193.017 166.36,-193.565 166.536,-194.123 166.71,-194.689 166.884,-195.263 167.057,-195.847 167.229,-196.438 167.26,-196.876 162.523,-200.805 162.099,-200.693 161.549,-200.414 161.008,-200.137 160.475,-199.86 159.951,-199.583 159.436,-199.307 158.929,-199.032 158.431,-198.758 157.942,-198.485 157.461,-198.213 156.988,-197.942 156.524,-197.672 156.069,-197.404 155.622,-197.137 155.183,-196.871 154.752,-196.608 154.33,-196.345 153.916,-196.085 153.51,-195.827 153.113,-195.57 152.723,-195.316 152.342,-195.063 151.969,-194.813 151.604,-194.565 151.247,-194.32 150.897,-194.077 150.556,-193.837 150.223,-193.599 149.897,-193.364 149.579,-193.132 149.269,-192.902 148.967,-192.676 148.672,-192.452 148.385,-192.232 148.106,-192.015 147.834,-191.801 147.57,-191.591 147.313,-191.384 147.063,-191.181 146.82,-190.981 145.808,-191.155 141.313,-194.501 140.857,-195.421 140.979,-195.71 141.102,-196.008 141.226,-196.314 141.352,-196.627 141.479,-196.949 141.607,-197.279 141.735,-197.617 141.865,-197.964 141.995,-198.318 142.126,-198.681 142.257,-199.052 142.389,-199.431 142.521,-199.819 142.654,-200.215 142.786,-200.619 142.919,-201.031 143.052,-201.452 143.184,-201.881 143.317,-202.319 143.449,-202.765 143.581,-203.219 143.712,-203.682 143.842,-204.153 143.973,-204.633 144.102,-205.121 144.23,-205.618 144.358,-206.123 144.484,-206.636 144.609,-207.158 144.733,-207.688 144.856,-208.227 144.977,-208.774 145.097,-209.33 145.215,-209.894 145.332,-210.467 145.447,-211.048 145.56,-211.638 145.67,-212.236 145.779,-212.842 145.765,-213.281 140.643,-216.693 140.233,-216.537 139.715,-216.203 139.206,-215.87 138.705,-215.539 138.213,-215.209 137.729,-214.881 137.254,-214.554 136.788,-214.23 136.329,-213.907 135.879,-213.586 135.438,-213.267 135.005,-212.95 134.579,-212.636 134.163,-212.324 133.754,-212.014 133.353,-211.707 132.961,-211.402 132.576,-211.1 132.2,-210.8 131.831,-210.503 131.471,-210.21 131.118,-209.919 130.773,-209.631 130.436,-209.347 130.106,-209.065 129.784,-208.787 129.47,-208.512 129.163,-208.241 128.864,-207.973 128.572,-207.709 128.288,-207.448 128.011,-207.192 127.741,-206.939 127.479,-206.69 127.224,-206.445 126.975,-206.204 126.734,-205.967 126.5,-205.734 126.273,-205.506 126.053,-205.282 125.029,-205.349 120.208,-208.207 119.658,-209.074 119.749,-209.375 119.841,-209.683 119.932,-210 120.025,-210.325 120.117,-210.659 120.21,-211 120.302,-211.35 120.395,-211.708 120.487,-212.074 120.579,-212.449 120.671,-212.831 120.763,-213.222 120.854,-213.622 120.944,-214.029 121.034,-214.445 121.123,-214.869 121.211,-215.302 121.298,-215.742 121.384,-216.191 121.468,-216.649 121.552,-217.114 121.634,-217.588 121.715,-218.071 121.794,-218.561 121.871,-219.06 121.947,-219.567 122.021,-220.083 122.093,-220.607 122.163,-221.139 122.231,-221.679 122.297,-222.228 122.36,-222.785 122.421,-223.35 122.48,-223.924 122.536,-224.505 122.589,-225.095 122.64,-225.694 122.688,-226.3 122.732,-226.915 122.673,-227.349 117.221,-230.207 116.83,-230.009 116.35,-229.623 115.878,-229.239 115.415,-228.857 114.96,-228.477 114.514,-228.1 114.075,-227.726 113.645,-227.354 113.223,-226.985 112.809,-226.619 112.403,-226.256 112.006,-225.896 111.616,-225.538 111.234,-225.184 110.86,-224.834 110.493,-224.486 110.135,-224.142 109.784,-223.801 109.441,-223.464 109.105,-223.13 108.778,-222.801 108.457,-222.475 108.144,-222.152 107.838,-221.834 107.54,-221.52 107.249,-221.209 106.965,-220.903 106.689,-220.601 106.419,-220.304 106.156,-220.011 105.901,-219.722 105.652,-219.437 105.411,-219.158 105.176,-218.883 104.947,-218.612 104.726,-218.347 104.511,-218.086 104.302,-217.83 104.1,-217.579 103.905,-217.333 102.879,-217.293 97.786,-219.632 97.149,-220.436 97.208,-220.745 97.266,-221.061 97.324,-221.386 97.382,-221.719 97.439,-222.06 97.496,-222.41 97.551,-222.767 97.606,-223.133 97.659,-223.507 97.712,-223.889 97.763,-224.279 97.813,-224.677 97.862,-225.084 97.909,-225.499 97.955,-225.922 97.999,-226.353 98.041,-226.792 98.082,-227.239 98.12,-227.695 98.157,-228.159 98.191,-228.631 98.223,-229.111 98.253,-229.599 98.281,-230.095 98.306,-230.599 98.328,-231.112 98.348,-231.632 98.365,-232.16 98.379,-232.697 98.39,-233.242 98.398,-233.794 98.403,-234.355 98.404,-234.923 98.403,-235.5 98.398,-236.084 98.389,-236.676 98.377,-237.277 98.361,-237.885 98.341,-238.5 98.236,-238.926 92.516,-241.199 92.148,-240.961 91.711,-240.527 91.282,-240.095 90.861,-239.667 90.448,-239.242 90.043,-238.821 89.647,-238.403 89.258,-237.988 88.876,-237.577 88.503,-237.17 88.137,-236.766 87.779,-236.366 87.429,-235.97 87.086,-235.578 86.751,-235.19 86.423,-234.806 86.102,-234.426 85.789,-234.051 85.483,-233.68 85.184,-233.313 84.893,-232.95 84.608,-232.593 84.33,-232.239 84.06,-231.891 83.796,-231.547 83.539,-231.208 83.289,-230.874 83.045,-230.545 82.808,-230.221 82.578,-229.902 82.354,-229.588 82.136,-229.279 81.925,-228.975 81.72,-228.677 81.521,-228.385 81.329,-228.097 81.142,-227.816 80.962,-227.539 80.787,-227.269 80.618,-227.004 79.602,-226.856 74.293,-228.65 73.574,-229.384 73.601,-229.697 73.626,-230.018 73.65,-230.347 73.673,-230.684 73.694,-231.029 73.713,-231.382 73.731,-231.744 73.747,-232.113 73.762,-232.491 73.774,-232.876 73.784,-233.269 73.792,-233.671 73.798,-234.08 73.802,-234.498 73.803,-234.923 73.802,-235.356 73.798,-235.798 73.792,-236.247 73.782,-236.704 73.77,-237.169 73.755,-237.642 73.737,-238.123 73.715,-238.611 73.691,-239.108 73.663,-239.612 73.632,-240.124 73.597,-240.643 73.558,-241.171 73.516,-241.706 73.47,-242.248 73.421,-242.799 73.367,-243.357 73.309,-243.922 73.247,-244.495 73.181,-245.076 73.111,-245.664 73.036,-246.26 72.956,-246.863 72.872,-247.473 72.723,-247.886 66.797,-249.548 66.455,-249.273 66.066,-248.795 65.685,-248.322 65.311,-247.852 64.945,-247.386 64.587,-246.925 64.236,-246.467 63.892,-246.014 63.556,-245.566 63.227,-245.121 62.906,-244.682 62.592,-244.247 62.285,-243.816 61.985,-243.39 61.692,-242.969 61.406,-242.553 61.127,-242.142 60.854,-241.736 60.589,-241.335 60.33,-240.939 60.078,-240.548 59.832,-240.162 59.593,-239.782 59.36,-239.407 59.134,-239.038 58.913,-238.674 58.699,-238.315 58.492,-237.962 58.29,-237.615 58.094,-237.274 57.904,-236.938 57.72,-236.609 57.542,-236.285 57.369,-235.967 57.202,-235.655 57.04,-235.349 56.884,-235.049 56.734,-234.756 56.588,-234.468 56.448,-234.187 55.453,-233.934 49.985,-235.163 49.194,-235.818 49.188,-236.132 49.179,-236.454 49.169,-236.783 49.156,-237.121 49.141,-237.467 49.124,-237.82 49.104,-238.181 49.081,-238.55 49.056,-238.927 49.028,-239.312 48.997,-239.704 48.963,-240.104 48.926,-240.512 48.886,-240.928 48.843,-241.351 48.796,-241.782 48.746,-242.22 48.693,-242.666 48.636,-243.12 48.575,-243.581 48.511,-244.05 48.442,-244.526 48.37,-245.009 48.294,-245.5 48.213,-245.999 48.129,-246.505 48.04,-247.018 47.946,-247.538 47.848,-248.066 47.746,-248.601 47.639,-249.143 47.527,-249.693 47.411,-250.249 47.289,-250.812 47.163,-251.383 47.031,-251.961 46.894,-252.545 46.752,-253.137 46.605,-253.735 46.414,-254.13 40.346,-255.163 40.035,-254.854 39.698,-254.338 39.368,-253.827 39.046,-253.321 38.73,-252.82 38.422,-252.323 38.121,-251.832 37.827,-251.345 37.539,-250.864 37.259,-250.388 36.985,-249.917 36.718,-249.451 36.458,-248.991 36.204,-248.536 35.956,-248.087 35.716,-247.643 35.481,-247.205 35.253,-246.773 35.03,-246.346 34.814,-245.925 34.604,-245.51 34.4,-245.101 34.202,-244.698 34.01,-244.301 33.823,-243.909 33.642,-243.524 33.467,-243.146 33.297,-242.773 33.133,-242.407 32.974,-242.047 32.82,-241.693 32.671,-241.346 32.528,-241.005 32.389,-240.671 32.256,-240.343 32.127,-240.022 32.003,-239.708 31.884,-239.4 31.77,-239.099 31.66,-238.805 30.696,-238.449 25.13,-239.1 24.275,-239.668 24.236,-239.98 24.194,-240.299 24.149,-240.626 24.101,-240.96 24.05,-241.302 23.995,-241.652 23.938,-242.009 23.877,-242.374 23.812,-242.746 23.744,-243.126 23.672,-243.513 23.597,-243.907 23.518,-244.309 23.434,-244.718 23.347,-245.134 23.256,-245.558 23.16,-245.989 23.061,-246.427 22.956,-246.872 22.848,-247.324 22.735,-247.783 22.617,-248.25 22.495,-248.723 22.367,-249.204 22.235,-249.691 22.098,-250.185 21.956,-250.686 21.809,-251.194 21.656,-251.709 21.499,-252.23 21.336,-252.758 21.167,-253.293 20.993,-253.834 20.813,-254.382 20.628,-254.936 20.436,-255.496 20.239,-256.063 20.036,-256.637 19.827,-257.217 19.596,-257.589 13.454,-257.983 13.176,-257.643 12.895,-257.095 12.62,-256.552 12.353,-256.015 12.091,-255.483 11.837,-254.957 11.588,-254.437 11.347,-253.922 11.111,-253.413 10.882,-252.911 10.659,-252.414 10.442,-251.923 10.231,-251.438 10.026,-250.959 9.827,-250.486 9.634,-250.02 9.447,-249.56 9.265,-249.106 9.088,-248.658 8.917,-248.217 8.752,-247.782 8.592,-247.354 8.437,-246.932 8.287,-246.517 8.143,-246.109 8.003,-245.707 7.868,-245.312 7.738,-244.924 7.613,-244.542 7.492,-244.167 7.376,-243.8 7.265,-243.439 7.158,-243.085 7.055,-242.738 6.957,-242.398 6.862,-242.065 6.772,-241.74 6.685,-241.421 6.603,-241.11 6.524,-240.806 5.604,-240.351 0,-240.417 -0.91,-240.893 -0.982,-241.198 -1.057,-241.511 -1.136,-241.832 -1.218,-242.16 -1.305,-242.494 -1.396,-242.836 -1.49,-243.186 -1.589,-243.542 -1.692,-243.905 -1.799,-244.276 -1.911,-244.653 -2.027,-245.037 -2.148,-245.429 -2.274,-245.827 -2.404,-246.232 -2.539,-246.643 -2.679,-247.062 -2.824,-247.487 -2.974,-247.919 -3.13,-248.357 -3.29,-248.802 -3.456,-249.254 -3.627,-249.712 -3.804,-250.177 -3.986,-250.647 -4.174,-251.125 -4.368,-251.608 -4.568,-252.098 -4.773,-252.594 -4.984,-253.095 -5.202,-253.604 -5.425,-254.118 -5.655,-254.638 -5.891,-255.164 -6.133,-255.695 -6.382,-256.233 -6.637,-256.776 -6.899,-257.325 -7.168,-257.88 -7.437,-258.226 -13.587,-257.976 -13.827,-257.609 -14.049,-257.034 -14.266,-256.466 -14.476,-255.903 -14.68,-255.347 -14.878,-254.798 -15.071,-254.254 -15.258,-253.717 -15.439,-253.187 -15.614,-252.663 -15.784,-252.145 -15.948,-251.634 -16.107,-251.13 -16.261,-250.632 -16.409,-250.141 -16.553,-249.657 -16.691,-249.18 -16.825,-248.71 -16.953,-248.246 -17.077,-247.789 -17.196,-247.34 -17.311,-246.897 -17.421,-246.462 -17.526,-246.033 -17.627,-245.612 -17.724,-245.197 -17.817,-244.79 -17.906,-244.391 -17.99,-243.998 -18.071,-243.613 -18.148,-243.235 -18.221,-242.865 -18.291,-242.501 -18.357,-242.146 -18.419,-241.797 -18.478,-241.457 -18.534,-241.123 -18.587,-240.798 -18.636,-240.479 -18.682,-240.169 -19.551,-239.62 -25.13,-239.1 -26.085,-239.478 -26.188,-239.774 -26.296,-240.078 -26.408,-240.388 -26.524,-240.706 -26.645,-241.03 -26.771,-241.36 -26.902,-241.698 -27.037,-242.042 -27.178,-242.392 -27.323,-242.749 -27.474,-243.113 -27.63,-243.483 -27.791,-243.86 -27.957,-244.242 -28.129,-244.631 -28.307,-245.027 -28.49,-245.428 -28.678,-245.836 -28.873,-246.25 -29.073,-246.67 -29.279,-247.096 -29.491,-247.527 -29.709,-247.965 -29.934,-248.408 -30.164,-248.858 -30.401,-249.312 -30.644,-249.773 -30.894,-250.239 -31.15,-250.711 -31.413,-251.188 -31.682,-251.671 -31.958,-252.158 -32.241,-252.652 -32.531,-253.15 -32.827,-253.654 -33.131,-254.162 -33.441,-254.676 -33.759,-255.195 -34.084,-255.718 -34.388,-256.034 -40.478,-255.142 -40.678,-254.752 -40.84,-254.158 -40.995,-253.57 -41.146,-252.988 -41.291,-252.414 -41.431,-251.847 -41.565,-251.286 -41.695,-250.732 -41.819,-250.186 -41.939,-249.646 -42.054,-249.114 -42.164,-248.589 -42.269,-248.07 -42.37,-247.56 -42.466,-247.056 -42.559,-246.559 -42.646,-246.07 -42.73,-245.588 -42.809,-245.114 -42.885,-244.647 -42.956,-244.187 -43.024,-243.735 -43.087,-243.29 -43.148,-242.853 -43.204,-242.424 -43.257,-242.002 -43.307,-241.587 -43.353,-241.18 -43.397,-240.781 -43.437,-240.389 -43.474,-240.006 -43.508,-239.629 -43.539,-239.261 -43.567,-238.9 -43.593,-238.547 -43.616,-238.202 -43.637,-237.865 -43.655,-237.536 -43.671,-237.214 -43.685,-236.9 -44.491,-236.264 -49.985,-235.163 -50.974,-235.439 -51.108,-235.724 -51.247,-236.014 -51.39,-236.311 -51.539,-236.614 -51.694,-236.924 -51.854,-237.24 -52.019,-237.562 -52.189,-237.89 -52.366,-238.224 -52.548,-238.564 -52.736,-238.909 -52.929,-239.261 -53.129,-239.619 -53.334,-239.982 -53.546,-240.351 -53.764,-240.726 -53.988,-241.106 -54.218,-241.492 -54.455,-241.883 -54.698,-242.28 -54.947,-242.681 -55.203,-243.089 -55.466,-243.501 -55.736,-243.919 -56.012,-244.341 -56.295,-244.769 -56.585,-245.202 -56.882,-245.639 -57.186,-246.081 -57.497,-246.528 -57.815,-246.98 -58.141,-247.437 -58.474,-247.897 -58.814,-248.363 -59.161,-248.833 -59.516,-249.307 -59.879,-249.785 -60.249,-250.268 -60.627,-250.754 -60.963,-251.037 -66.926,-249.514 -67.084,-249.105 -67.183,-248.496 -67.276,-247.895 -67.365,-247.302 -67.449,-246.715 -67.529,-246.136 -67.604,-245.565 -67.675,-245.001 -67.742,-244.444 -67.804,-243.895 -67.863,-243.353 -67.917,-242.82 -67.968,-242.293 -68.015,-241.775 -68.058,-241.263 -68.098,-240.76 -68.134,-240.264 -68.167,-239.777 -68.196,-239.296 -68.222,-238.824 -68.245,-238.359 -68.265,-237.903 -68.282,-237.454 -68.296,-237.013 -68.308,-236.58 -68.316,-236.154 -68.322,-235.737 -68.326,-235.327 -68.327,-234.926 -68.326,-234.532 -68.323,-234.147 -68.317,-233.769 -68.31,-233.399 -68.3,-233.038 -68.289,-232.684 -68.276,-232.338 -68.261,-232.001 -68.245,-231.671 -68.227,-231.35 -68.208,-231.036 -68.943,-230.319 -74.293,-228.65 -75.305,-228.821 -75.468,-229.09 -75.636,-229.365 -75.81,-229.645 -75.99,-229.931 -76.176,-230.223 -76.368,-230.52 -76.566,-230.823 -76.77,-231.131 -76.98,-231.445 -77.197,-231.764 -77.42,-232.088 -77.649,-232.418 -77.885,-232.753 -78.127,-233.092 -78.376,-233.437 -78.632,-233.787 -78.894,-234.142 -79.164,-234.501 -79.44,-234.866 -79.723,-235.235 -80.013,-235.608 -80.311,-235.987 -80.615,-236.369 -80.927,-236.756 -81.246,-237.148 -81.572,-237.544 -81.905,-237.944 -82.246,-238.348 -82.595,-238.756 -82.951,-239.168 -83.315,-239.584 -83.686,-240.004 -84.066,-240.427 -84.453,-240.855 -84.847,-241.285 -85.25,-241.72 -85.661,-242.158 -86.08,-242.599 -86.506,-243.043 -86.869,-243.29 -92.641,-241.151 -92.755,-240.728 -92.79,-240.113 -92.82,-239.505 -92.846,-238.905 -92.868,-238.313 -92.887,-237.729 -92.902,-237.153 -92.914,-236.585 -92.922,-236.024 -92.927,-235.471 -92.928,-234.927 -92.927,-234.39 -92.922,-233.861 -92.915,-233.341 -92.904,-232.828 -92.891,-232.323 -92.875,-231.826 -92.857,-231.338 -92.836,-230.857 -92.812,-230.385 -92.787,-229.92 -92.759,-229.464 -92.729,-229.016 -92.697,-228.575 -92.663,-228.143 -92.627,-227.72 -92.589,-227.304 -92.55,-226.896 -92.509,-226.497 -92.467,-226.105 -92.424,-225.722 -92.379,-225.347 -92.332,-224.98 -92.285,-224.622 -92.237,-224.271 -92.188,-223.929 -92.138,-223.595 -92.087,-223.268 -92.036,-222.951 -91.984,-222.641 -92.641,-221.851 -97.786,-219.632 -98.811,-219.696 -99.001,-219.946 -99.197,-220.202 -99.399,-220.463 -99.608,-220.728 -99.823,-220.999 -100.045,-221.275 -100.274,-221.555 -100.509,-221.84 -100.751,-222.13 -101,-222.425 -101.255,-222.724 -101.518,-223.028 -101.787,-223.336 -102.064,-223.649 -102.348,-223.966 -102.639,-224.287 -102.937,-224.613 -103.242,-224.942 -103.555,-225.275 -103.875,-225.613 -104.203,-225.954 -104.538,-226.299 -104.881,-226.648 -105.231,-227 -105.589,-227.356 -105.955,-227.716 -106.329,-228.079 -106.71,-228.445 -107.099,-228.814 -107.497,-229.187 -107.902,-229.563 -108.315,-229.941 -108.737,-230.323 -109.166,-230.707 -109.604,-231.095 -110.05,-231.485 -110.504,-231.877 -110.966,-232.272 -111.437,-232.67 -111.824,-232.877 -117.34,-230.146 -117.41,-229.713 -117.38,-229.098 -117.346,-228.491 -117.31,-227.891 -117.27,-227.3 -117.228,-226.718 -117.182,-226.143 -117.135,-225.576 -117.084,-225.018 -117.031,-224.468 -116.976,-223.926 -116.918,-223.393 -116.858,-222.867 -116.796,-222.35 -116.732,-221.841 -116.667,-221.341 -116.599,-220.848 -116.529,-220.364 -116.458,-219.888 -116.386,-219.421 -116.312,-218.962 -116.236,-218.511 -116.16,-218.068 -116.082,-217.634 -116.003,-217.208 -115.923,-216.79 -115.842,-216.38 -115.76,-215.979 -115.678,-215.586 -115.595,-215.201 -115.512,-214.825 -115.428,-214.457 -115.344,-214.097 -115.259,-213.745 -115.174,-213.401 -115.09,-213.066 -115.005,-212.739 -114.921,-212.42 -114.837,-212.109 -114.753,-211.806 -115.323,-210.952 -120.208,-208.207 -121.234,-208.164 -121.449,-208.393 -121.671,-208.627 -121.899,-208.865 -122.135,-209.107 -122.377,-209.354 -122.627,-209.605 -122.883,-209.86 -123.147,-210.119 -123.418,-210.382 -123.696,-210.649 -123.982,-210.92 -124.275,-211.195 -124.575,-211.473 -124.883,-211.755 -125.198,-212.041 -125.521,-212.33 -125.851,-212.622 -126.189,-212.918 -126.535,-213.217 -126.889,-213.519 -127.251,-213.824 -127.62,-214.132 -127.997,-214.443 -128.383,-214.757 -128.776,-215.074 -129.177,-215.393 -129.587,-215.715 -130.004,-216.039 -130.43,-216.366 -130.864,-216.695 -131.307,-217.026 -131.757,-217.36 -132.216,-217.695 -132.684,-218.033 -133.159,-218.372 -133.644,-218.713 -134.136,-219.056 -134.638,-219.401 -135.148,-219.747 -135.554,-219.912 -140.754,-216.62 -140.779,-216.182 -140.684,-215.573 -140.587,-214.973 -140.488,-214.381 -140.387,-213.797 -140.284,-213.222 -140.179,-212.655 -140.072,-212.097 -139.963,-211.547 -139.853,-211.005 -139.742,-210.472 -139.629,-209.947 -139.514,-209.431 -139.399,-208.923 -139.282,-208.424 -139.164,-207.933 -139.045,-207.451 -138.925,-206.976 -138.805,-206.511 -138.684,-206.053 -138.562,-205.604 -138.44,-205.164 -138.317,-204.732 -138.195,-204.308 -138.072,-203.892 -137.948,-203.485 -137.825,-203.086 -137.702,-202.696 -137.579,-202.313 -137.456,-201.939 -137.334,-201.574 -137.212,-201.216 -137.091,-200.867 -136.97,-200.526 -136.85,-200.193 -136.731,-199.868 -136.612,-199.552 -136.495,-199.244 -136.379,-198.943 -136.264,-198.651 -136.742,-197.742 -141.313,-194.501 -142.329,-194.351 -142.567,-194.557 -142.812,-194.766 -143.064,-194.979 -143.323,-195.195 -143.59,-195.415 -143.865,-195.639 -144.146,-195.865 -144.436,-196.096 -144.733,-196.329 -145.037,-196.565 -145.35,-196.805 -145.67,-197.048 -145.997,-197.293 -146.333,-197.541 -146.676,-197.792 -147.028,-198.046 -147.387,-198.302 -147.754,-198.561 -148.129,-198.822 -148.513,-199.086 -148.904,-199.351 -149.304,-199.619 -149.712,-199.889 -150.128,-200.161 -150.552,-200.435 -150.984,-200.71 -151.425,-200.988 -151.875,-201.267 -152.332,-201.547 -152.798,-201.829 -153.273,-202.112 -153.756,-202.397 -154.247,-202.682 -154.747,-202.969 -155.256,-203.257 -155.773,-203.546 -156.299,-203.835 -156.834,-204.125 -157.377,-204.416 -157.798,-204.538 -162.626,-200.721 -162.605,-200.283 -162.447,-199.687 -162.288,-199.1 -162.127,-198.521 -161.966,-197.952 -161.803,-197.39 -161.639,-196.837 -161.475,-196.293 -161.309,-195.758 -161.143,-195.231 -160.976,-194.712 -160.809,-194.202 -160.641,-193.701 -160.473,-193.208 -160.305,-192.723 -160.136,-192.247 -159.968,-191.78 -159.799,-191.321 -159.631,-190.87 -159.463,-190.428 -159.295,-189.994 -159.127,-189.569 -158.96,-189.152 -158.794,-188.743 -158.628,-188.343 -158.463,-187.951 -158.299,-187.567 -158.135,-187.192 -157.973,-186.824 -157.812,-186.465 -157.652,-186.114 -157.493,-185.771 -157.336,-185.437 -157.18,-185.11 -157.026,-184.792 -156.874,-184.481 -156.723,-184.179 -156.574,-183.884 -156.427,-183.598 -156.282,-183.319 -156.662,-182.365 -160.87,-178.664 -161.865,-178.409 -162.123,-178.589 -162.388,-178.771 -162.661,-178.956 -162.942,-179.144 -163.23,-179.335 -163.526,-179.529 -163.83,-179.725 -164.142,-179.924 -164.462,-180.125 -164.79,-180.328 -165.125,-180.534 -165.469,-180.742 -165.82,-180.951 -166.18,-181.163 -166.548,-181.377 -166.924,-181.593 -167.308,-181.81 -167.7,-182.029 -168.101,-182.249 -168.509,-182.471 -168.926,-182.695 -169.352,-182.919 -169.786,-183.145 -170.228,-183.372 -170.678,-183.6 -171.137,-183.829 -171.605,-184.058 -172.081,-184.289 -172.565,-184.52 -173.058,-184.751 -173.56,-184.984 -174.07,-185.216 -174.588,-185.449 -175.116,-185.682 -175.652,-185.915 -176.196,-186.148 -176.749,-186.381 -177.311,-186.613 -177.882,-186.846 -178.314,-186.923 -182.716,-182.622 -182.649,-182.189 -182.43,-181.613 -182.21,-181.046 -181.99,-180.487 -181.77,-179.937 -181.55,-179.396 -181.329,-178.863 -181.109,-178.339 -180.888,-177.824 -180.668,-177.317 -180.448,-176.819 -180.228,-176.329 -180.009,-175.848 -179.79,-175.375 -179.572,-174.911 -179.355,-174.455 -179.138,-174.008 -178.922,-173.569 -178.708,-173.139 -178.494,-172.717 -178.282,-172.303 -178.071,-171.897 -177.861,-171.5 -177.653,-171.111 -177.446,-170.73 -177.241,-170.357 -177.037,-169.993 -176.836,-169.636 -176.636,-169.288 -176.438,-168.948 -176.243,-168.616 -176.049,-168.291 -175.858,-167.975 -175.669,-167.666 -175.482,-167.366 -175.298,-167.073 -175.116,-166.788 -174.937,-166.511 -174.761,-166.241 -174.588,-165.979 -174.866,-164.991 -178.664,-160.87 -179.627,-160.512 -179.902,-160.664 -180.185,-160.817 -180.476,-160.973 -180.775,-161.131 -181.082,-161.291 -181.396,-161.452 -181.719,-161.616 -182.05,-161.78 -182.389,-161.947 -182.736,-162.115 -183.091,-162.285 -183.455,-162.455 -183.827,-162.627 -184.206,-162.8 -184.594,-162.975 -184.991,-163.15 -185.396,-163.326 -185.809,-163.502 -186.23,-163.68 -186.66,-163.858 -187.098,-164.036 -187.544,-164.215 -187.999,-164.394 -188.463,-164.574 -188.935,-164.753 -189.415,-164.933 -189.904,-165.112 -190.401,-165.292 -190.907,-165.471 -191.422,-165.65 -191.945,-165.828 -192.476,-166.006 -193.017,-166.183 -193.565,-166.36 -194.123,-166.536 -194.689,-166.71 -195.263,-166.884 -195.847,-167.057 -196.438,-167.229 -196.876,-167.26 -200.805,-162.523 -200.693,-162.099 -200.414,-161.549 -200.137,-161.008 -199.86,-160.475 -199.583,-159.951 -199.307,-159.436 -199.032,-158.929 -198.758,-158.431 -198.485,-157.942 -198.213,-157.461 -197.942,-156.988 -197.672,-156.524 -197.404,-156.069 -197.137,-155.622 -196.871,-155.183 -196.608,-154.752 -196.345,-154.33 -196.085,-153.916 -195.827,-153.51 -195.57,-153.113 -195.316,-152.723 -195.063,-152.342 -194.813,-151.969 -194.565,-151.604 -194.32,-151.247 -194.077,-150.897 -193.837,-150.556 -193.599,-150.223 -193.364,-149.897 -193.132,-149.579 -192.902,-149.269 -192.676,-148.967 -192.452,-148.672 -192.232,-148.385 -192.015,-148.106 -191.801,-147.834 -191.591,-147.57 -191.384,-147.313 -191.181,-147.063 -190.981,-146.82 -191.155,-145.808 -194.501,-141.313 -195.421,-140.857 -195.71,-140.979 -196.008,-141.102 -196.314,-141.226 -196.627,-141.352 -196.949,-141.479 -197.279,-141.607 -197.617,-141.735 -197.964,-141.865 -198.318,-141.995 -198.681,-142.126 -199.052,-142.257 -199.431,-142.389 -199.819,-142.521 -200.215,-142.654 -200.619,-142.786 -201.031,-142.919 -201.452,-143.052 -201.881,-143.184 -202.319,-143.317 -202.765,-143.449 -203.219,-143.581 -203.682,-143.712 -204.153,-143.842 -204.633,-143.973 -205.121,-144.102 -205.618,-144.23 -206.123,-144.358 -206.636,-144.484 -207.158,-144.609 -207.688,-144.733 -208.227,-144.856 -208.774,-144.977 -209.33,-145.097 -209.894,-145.215 -210.467,-145.332 -211.048,-145.447 -211.638,-145.56 -212.236,-145.67 -212.842,-145.779 -213.281,-145.765 -216.693,-140.643 -216.537,-140.233 -216.203,-139.715 -215.87,-139.206 -215.539,-138.705 -215.209,-138.213 -214.881,-137.729 -214.554,-137.254 -214.23,-136.788 -213.907,-136.329 -213.586,-135.879 -213.267,-135.438 -212.95,-135.005 -212.636,-134.579 -212.324,-134.163 -212.014,-133.754 -211.707,-133.353 -211.402,-132.961 -211.1,-132.576 -210.8,-132.2 -210.503,-131.831 -210.21,-131.471 -209.919,-131.118 -209.631,-130.773 -209.347,-130.436 -209.065,-130.106 -208.787,-129.784 -208.512,-129.47 -208.241,-129.163 -207.973,-128.864 -207.709,-128.572 -207.448,-128.288 -207.192,-128.011 -206.939,-127.741 -206.69,-127.479 -206.445,-127.224 -206.204,-126.975 -205.967,-126.734 -205.734,-126.5 -205.506,-126.273 -205.282,-126.053 -205.349,-125.029 -208.207,-120.208 -209.074,-119.658 -209.375,-119.749 -209.683,-119.841 -210,-119.932 -210.325,-120.025 -210.659,-120.117 -211,-120.21 -211.35,-120.302 -211.708,-120.395 -212.074,-120.487 -212.449,-120.579 -212.831,-120.671 -213.222,-120.763 -213.622,-120.854 -214.029,-120.944 -214.445,-121.034 -214.869,-121.123 -215.302,-121.211 -215.742,-121.298 -216.191,-121.384 -216.649,-121.468 -217.114,-121.552 -217.588,-121.634 -218.071,-121.715 -218.561,-121.794 -219.06,-121.871 -219.567,-121.947 -220.083,-122.021 -220.607,-122.093 -221.139,-122.163 -221.679,-122.231 -222.228,-122.297 -222.785,-122.36 -223.35,-122.421 -223.924,-122.48 -224.505,-122.536 -225.095,-122.589 -225.694,-122.64 -226.3,-122.688 -226.915,-122.732 -227.349,-122.673 -230.207,-117.221 -230.009,-116.83 -229.623,-116.35 -229.239,-115.878 -228.857,-115.415 -228.477,-114.96 -228.1,-114.514 -227.726,-114.075 -227.354,-113.645 -226.985,-113.223 -226.619,-112.809 -226.256,-112.403 -225.896,-112.006 -225.538,-111.616 -225.184,-111.234 -224.834,-110.86 -224.486,-110.493 -224.142,-110.135 -223.801,-109.784 -223.464,-109.441 -223.13,-109.105 -222.801,-108.778 -222.475,-108.457 -222.152,-108.144 -221.834,-107.838 -221.52,-107.54 -221.209,-107.249 -220.903,-106.965 -220.601,-106.689 -220.304,-106.419 -220.011,-106.156 -219.722,-105.901 -219.437,-105.652 -219.158,-105.411 -218.883,-105.176 -218.612,-104.947 -218.347,-104.726 -218.086,-104.511 -217.83,-104.302 -217.579,-104.1 -217.333,-103.905 -217.293,-102.879 -219.632,-97.786 -220.436,-97.149 -220.745,-97.208 -221.061,-97.266 -221.386,-97.324 -221.719,-97.382 -222.06,-97.439 -222.41,-97.496 -222.767,-97.551 -223.133,-97.606 -223.507,-97.659 -223.889,-97.712 -224.279,-97.763 -224.677,-97.813 -225.084,-97.862 -225.499,-97.909 -225.922,-97.955 -226.353,-97.999 -226.792,-98.041 -227.239,-98.082 -227.695,-98.12 -228.159,-98.157 -228.631,-98.191 -229.111,-98.223 -229.599,-98.253 -230.095,-98.281 -230.599,-98.306 -231.112,-98.328 -231.632,-98.348 -232.16,-98.365 -232.697,-98.379 -233.242,-98.39 -233.794,-98.398 -234.355,-98.403 -234.923,-98.404 -235.5,-98.403 -236.084,-98.398 -236.676,-98.389 -237.277,-98.377 -237.885,-98.361 -238.5,-98.341 -238.926,-98.236 -241.199,-92.516 -240.961,-92.148 -240.527,-91.711 -240.095,-91.282 -239.667,-90.861 -239.242,-90.448 -238.821,-90.043 -238.403,-89.647 -237.988,-89.258 -237.577,-88.876 -237.17,-88.503 -236.766,-88.137 -236.366,-87.779 -235.97,-87.429 -235.578,-87.086 -235.19,-86.751 -234.806,-86.423 -234.426,-86.102 -234.051,-85.789 -233.68,-85.483 -233.313,-85.184 -232.95,-84.893 -232.593,-84.608 -232.239,-84.33 -231.891,-84.06 -231.547,-83.796 -231.208,-83.539 -230.874,-83.289 -230.545,-83.045 -230.221,-82.808 -229.902,-82.578 -229.588,-82.354 -229.279,-82.136 -228.975,-81.925 -228.677,-81.72 -228.385,-81.521 -228.097,-81.329 -227.816,-81.142 -227.539,-80.962 -227.269,-80.787 -227.004,-80.618 -226.856,-79.602 -228.65,-74.293 -229.384,-73.574 -229.697,-73.601 -230.018,-73.626 -230.347,-73.65 -230.684,-73.673 -231.029,-73.694 -231.382,-73.713 -231.744,-73.731 -232.113,-73.747 -232.491,-73.762 -232.876,-73.774 -233.269,-73.784 -233.671,-73.792 -234.08,-73.798 -234.498,-73.802 -234.923,-73.803 -235.356,-73.802 -235.798,-73.798 -236.247,-73.792 -236.704,-73.782 -237.169,-73.77 -237.642,-73.755 -238.123,-73.737 -238.611,-73.715 -239.108,-73.691 -239.612,-73.663 -240.124,-73.632 -240.643,-73.597 -241.171,-73.558 -241.706,-73.516 -242.248,-73.47 -242.799,-73.421 -243.357,-73.367 -243.922,-73.309 -244.495,-73.247 -245.076,-73.181 -245.664,-73.111 -246.26,-73.036 -246.863,-72.956 -247.473,-72.872 -247.886,-72.723 -249.548,-66.797 -249.273,-66.455 -248.795,-66.066 -248.322,-65.685 -247.852,-65.311 -247.386,-64.945 -246.925,-64.587 -246.467,-64.236 -246.014,-63.892 -245.566,-63.556 -245.121,-63.227 -244.682,-62.906 -244.247,-62.592 -243.816,-62.285 -243.39,-61.985 -242.969,-61.692 -242.553,-61.406 -242.142,-61.127 -241.736,-60.854 -241.335,-60.589 -240.939,-60.33 -240.548,-60.078 -240.162,-59.832 -239.782,-59.593 -239.407,-59.36 -239.038,-59.134 -238.674,-58.913 -238.315,-58.699 -237.962,-58.492 -237.615,-58.29 -237.274,-58.094 -236.938,-57.904 -236.609,-57.72 -236.285,-57.542 -235.967,-57.369 -235.655,-57.202 -235.349,-57.04 -235.049,-56.884 -234.756,-56.734 -234.468,-56.588 -234.187,-56.448 -233.934,-55.453 -235.163,-49.985 -235.818,-49.194 -236.132,-49.188 -236.454,-49.179 -236.783,-49.169 -237.121,-49.156 -237.467,-49.141 -237.82,-49.124 -238.181,-49.104 -238.55,-49.081 -238.927,-49.056 -239.312,-49.028 -239.704,-48.997 -240.104,-48.963 -240.512,-48.926 -240.928,-48.886 -241.351,-48.843 -241.782,-48.796 -242.22,-48.746 -242.666,-48.693 -243.12,-48.636 -243.581,-48.575 -244.05,-48.511 -244.526,-48.442 -245.009,-48.37 -245.5,-48.294 -245.999,-48.213 -246.505,-48.129 -247.018,-48.04 -247.538,-47.946 -248.066,-47.848 -248.601,-47.746 -249.143,-47.639 -249.693,-47.527 -250.249,-47.411 -250.812,-47.289 -251.383,-47.163 -251.961,-47.031 -252.545,-46.894 -253.137,-46.752 -253.735,-46.605 -254.13,-46.414 -255.163,-40.346 -254.854,-40.035 -254.338,-39.698 -253.827,-39.368 -253.321,-39.046 -252.82,-38.73 -252.323,-38.422 -251.832,-38.121 -251.345,-37.827 -250.864,-37.539 -250.388,-37.259 -249.917,-36.985 -249.451,-36.718 -248.991,-36.458 -248.536,-36.204 -248.087,-35.956 -247.643,-35.716 -247.205,-35.481 -246.773,-35.253 -246.346,-35.03 -245.925,-34.814 -245.51,-34.604 -245.101,-34.4 -244.698,-34.202 -244.301,-34.01 -243.909,-33.823 -243.524,-33.642 -243.146,-33.467 -242.773,-33.297 -242.407,-33.133 -242.047,-32.974 -241.693,-32.82 -241.346,-32.671 -241.005,-32.528 -240.671,-32.389 -240.343,-32.256 -240.022,-32.127 -239.708,-32.003 -239.4,-31.884 -239.099,-31.77 -238.805,-31.66 -238.449,-30.696 -239.1,-25.13 -239.668,-24.275 -239.98,-24.236 -240.299,-24.194 -240.626,-24.149 -240.96,-24.101 -241.302,-24.05 -241.652,-23.995 -242.009,-23.938 -242.374,-23.877 -242.746,-23.812 -243.126,-23.744 -243.513,-23.672 -243.907,-23.597 -244.309,-23.518 -244.718,-23.434 -245.134,-23.347 -245.558,-23.256 -245.989,-23.16 -246.427,-23.061 -246.872,-22.956 -247.324,-22.848 -247.783,-22.735 -248.25,-22.617 -248.723,-22.495 -249.204,-22.367 -249.691,-22.235 -250.185,-22.098 -250.686,-21.956 -251.194,-21.809 -251.709,-21.656 -252.23,-21.499 -252.758,-21.336 -253.293,-21.167 -253.834,-20.993 -254.382,-20.813 -254.936,-20.628 -255.496,-20.436 -256.063,-20.239 -256.637,-20.036 -257.217,-19.827 -257.589,-19.596 -257.983,-13.454 -257.643,-13.176 -257.095,-12.895 -256.552,-12.62 -256.015,-12.353 -255.483,-12.091 -254.957,-11.837 -254.437,-11.588 -253.922,-11.347 -253.413,-11.111 -252.911,-10.882 -252.414,-10.659 -251.923,-10.442 -251.438,-10.231 -250.959,-10.026 -250.486,-9.827 -250.02,-9.634 -249.56,-9.447 -249.106,-9.265 -248.658,-9.088 -248.217,-8.917 -247.782,-8.752 -247.354,-8.592 -246.932,-8.437 -246.517,-8.287 -246.109,-8.143 -245.707,-8.003 -245.312,-7.868 -244.924,-7.738 -244.542,-7.613 -244.167,-7.492 -243.8,-7.376 -243.439,-7.265 -243.085,-7.158 -242.738,-7.055 -242.398,-6.957 -242.065,-6.862 -241.74,-6.772 -241.421,-6.685 -241.11,-6.603 -240.806,-6.524 -240.351,-5.604 -240.417,0 -240.893,0.91 -241.198,0.982 -241.511,1.057 -241.832,1.136 -242.16,1.218 -242.494,1.305 -242.836,1.396 -243.186,1.49 -243.542,1.589 -243.905,1.692 -244.276,1.799 -244.653,1.911 -245.037,2.027 -245.429,2.148 -245.827,2.274 -246.232,2.404 -246.643,2.539 -247.062,2.679 -247.487,2.824 -247.919,2.974 -248.357,3.13 -248.802,3.29 -249.254,3.456 -249.712,3.627 -250.177,3.804 -250.647,3.986 -251.125,4.174 -251.608,4.368 -252.098,4.568 -252.594,4.773 -253.095,4.984 -253.604,5.202 -254.118,5.425 -254.638,5.655 -255.164,5.891 -255.695,6.133 -256.233,6.382 -256.776,6.637 -257.325,6.899 -257.88,7.168 -258.226,7.437 -257.976,13.587 -257.609,13.827 -257.034,14.049 -256.466,14.266 -255.903,14.476 -255.347,14.68 -254.798,14.878 -254.254,15.071 -253.717,15.258 -253.187,15.439 -252.663,15.614 -252.145,15.784 -251.634,15.948 -251.13,16.107 -250.632,16.261 -250.141,16.409 -249.657,16.553 -249.18,16.691 -248.71,16.825 -248.246,16.953 -247.789,17.077 -247.34,17.196 -246.897,17.311 -246.462,17.421 -246.033,17.526 -245.612,17.627 -245.197,17.724 -244.79,17.817 -244.391,17.906 -243.998,17.99 -243.613,18.071 -243.235,18.148 -242.865,18.221 -242.501,18.291 -242.146,18.357 -241.797,18.419 -241.457,18.478 -241.123,18.534 -240.798,18.587 -240.479,18.636 -240.169,18.682 -239.62,19.551 -239.1,25.13 -239.478,26.085 -239.774,26.188 -240.078,26.296 -240.388,26.408 -240.706,26.524 -241.03,26.645 -241.36,26.771 -241.698,26.902 -242.042,27.037 -242.392,27.178 -242.749,27.323 -243.113,27.474 -243.483,27.63 -243.86,27.791 -244.242,27.957 -244.631,28.129 -245.027,28.307 -245.428,28.49 -245.836,28.678 -246.25,28.873 -246.67,29.073 -247.096,29.279 -247.527,29.491 -247.965,29.709 -248.408,29.934 -248.858,30.164 -249.312,30.401 -249.773,30.644 -250.239,30.894 -250.711,31.15 -251.188,31.413 -251.671,31.682 -252.158,31.958 -252.652,32.241 -253.15,32.531 -253.654,32.827 -254.162,33.131 -254.676,33.441 -255.195,33.759 -255.718,34.084 -256.034,34.388 -255.142,40.478 -254.752,40.678 -254.158,40.84 -253.57,40.995 -252.988,41.146 -252.414,41.291 -251.847,41.431 -251.286,41.565 -250.732,41.695 -250.186,41.819 -249.646,41.939 -249.114,42.054 -248.589,42.164 -248.07,42.269 -247.56,42.37 -247.056,42.466 -246.559,42.559 -246.07,42.646 -245.588,42.73 -245.114,42.809 -244.647,42.885 -244.187,42.956 -243.735,43.024 -243.29,43.087 -242.853,43.148 -242.424,43.204 -242.002,43.257 -241.587,43.307 -241.18,43.353 -240.781,43.397 -240.389,43.437 -240.006,43.474 -239.629,43.508 -239.261,43.539 -238.9,43.567 -238.547,43.593 -238.202,43.616 -237.865,43.637 -237.536,43.655 -237.214,43.671 -236.9,43.685 -236.264,44.491 -235.163,49.985 -235.439,50.974 -235.724,51.108 -236.014,51.247 -236.311,51.39 -236.614,51.539 -236.924,51.694 -237.24,51.854 -237.562,52.019 -237.89,52.189 -238.224,52.366 -238.564,52.548 -238.909,52.736 -239.261,52.929 -239.619,53.129 -239.982,53.334 -240.351,53.546 -240.726,53.764 -241.106,53.988 -241.492,54.218 -241.883,54.455 -242.28,54.698 -242.681,54.947 -243.089,55.203 -243.501,55.466 -243.919,55.736 -244.341,56.012 -244.769,56.295 -245.202,56.585 -245.639,56.882 -246.081,57.186 -246.528,57.497 -246.98,57.815 -247.437,58.141 -247.897,58.474 -248.363,58.814 -248.833,59.161 -249.307,59.516 -249.785,59.879 -250.268,60.249 -250.754,60.627 -251.037,60.963 -249.514,66.926 -249.105,67.084 -248.496,67.183 -247.895,67.276 -247.302,67.365 -246.715,67.449 -246.136,67.529 -245.565,67.604 -245.001,67.675 -244.444,67.742 -243.895,67.804 -243.353,67.863 -242.82,67.917 -242.293,67.968 -241.775,68.015 -241.263,68.058 -240.76,68.098 -240.264,68.134 -239.777,68.167 -239.296,68.196 -238.824,68.222 -238.359,68.245 -237.903,68.265 -237.454,68.282 -237.013,68.296 -236.58,68.308 -236.154,68.316 -235.737,68.322 -235.327,68.326 -234.926,68.327 -234.532,68.326 -234.147,68.323 -233.769,68.317 -233.399,68.31 -233.038,68.3 -232.684,68.289 -232.338,68.276 -232.001,68.261 -231.671,68.245 -231.35,68.227 -231.036,68.208 -230.319,68.943 -228.65,74.293 -228.821,75.305 -229.09,75.468 -229.365,75.636 -229.645,75.81 -229.931,75.99 -230.223,76.176 -230.52,76.368 -230.823,76.566 -231.131,76.77 -231.445,76.98 -231.764,77.197 -232.088,77.42 -232.418,77.649 -232.753,77.885 -233.092,78.127 -233.437,78.376 -233.787,78.632 -234.142,78.894 -234.501,79.164 -234.866,79.44 -235.235,79.723 -235.608,80.013 -235.987,80.311 -236.369,80.615 -236.756,80.927 -237.148,81.246 -237.544,81.572 -237.944,81.905 -238.348,82.246 -238.756,82.595 -239.168,82.951 -239.584,83.315 -240.004,83.686 -240.427,84.066 -240.855,84.453 -241.285,84.847 -241.72,85.25 -242.158,85.661 -242.599,86.08 -243.043,86.506 -243.29,86.869 -241.151,92.641 -240.728,92.755 -240.113,92.79 -239.505,92.82 -238.905,92.846 -238.313,92.868 -237.729,92.887 -237.153,92.902 -236.585,92.914 -236.024,92.922 -235.471,92.927 -234.927,92.928 -234.39,92.927 -233.861,92.922 -233.341,92.915 -232.828,92.904 -232.323,92.891 -231.826,92.875 -231.338,92.857 -230.857,92.836 -230.385,92.812 -229.92,92.787 -229.464,92.759 -229.016,92.729 -228.575,92.697 -228.143,92.663 -227.72,92.627 -227.304,92.589 -226.896,92.55 -226.497,92.509 -226.105,92.467 -225.722,92.424 -225.347,92.379 -224.98,92.332 -224.622,92.285 -224.271,92.237 -223.929,92.188 -223.595,92.138 -223.268,92.087 -222.951,92.036 -222.641,91.984 -221.851,92.641 -219.632,97.786 -219.696,98.811 -219.946,99.001 -220.202,99.197 -220.463,99.399 -220.728,99.608 -220.999,99.823 -221.275,100.045 -221.555,100.274 -221.84,100.509 -222.13,100.751 -222.425,101 -222.724,101.255 -223.028,101.518 -223.336,101.787 -223.649,102.064 -223.966,102.348 -224.287,102.639 -224.613,102.937 -224.942,103.242 -225.275,103.555 -225.613,103.875 -225.954,104.203 -226.299,104.538 -226.648,104.881 -227,105.231 -227.356,105.589 -227.716,105.955 -228.079,106.329 -228.445,106.71 -228.814,107.099 -229.187,107.497 -229.563,107.902 -229.941,108.315 -230.323,108.737 -230.707,109.166 -231.095,109.604 -231.485,110.05 -231.877,110.504 -232.272,110.966 -232.67,111.437 -232.877,111.824 -230.146,117.34 -229.713,117.41 -229.098,117.38 -228.491,117.346 -227.891,117.31 -227.3,117.27 -226.718,117.228 -226.143,117.182 -225.576,117.135 -225.018,117.084 -224.468,117.031 -223.926,116.976 -223.393,116.918 -222.867,116.858 -222.35,116.796 -221.841,116.732 -221.341,116.667 -220.848,116.599 -220.364,116.529 -219.888,116.458 -219.421,116.386 -218.962,116.312 -218.511,116.236 -218.068,116.16 -217.634,116.082 -217.208,116.003 -216.79,115.923 -216.38,115.842 -215.979,115.76 -215.586,115.678 -215.201,115.595 -214.825,115.512 -214.457,115.428 -214.097,115.344 -213.745,115.259 -213.401,115.174 -213.066,115.09 -212.739,115.005 -212.42,114.921 -212.109,114.837 -211.806,114.753 -210.952,115.323 -208.207,120.208 -208.164,121.234 -208.393,121.449 -208.627,121.671 -208.865,121.899 -209.107,122.135 -209.354,122.377 -209.605,122.627 -209.86,122.883 -210.119,123.147 -210.382,123.418 -210.649,123.696 -210.92,123.982 -211.195,124.275 -211.473,124.575 -211.755,124.883 -212.041,125.198 -212.33,125.521 -212.622,125.851 -212.918,126.189 -213.217,126.535 -213.519,126.889 -213.824,127.251 -214.132,127.62 -214.443,127.997 -214.757,128.383 -215.074,128.776 -215.393,129.177 -215.715,129.587 -216.039,130.004 -216.366,130.43 -216.695,130.864 -217.026,131.307 -217.36,131.757 -217.695,132.216 -218.033,132.684 -218.372,133.159 -218.713,133.644 -219.056,134.136 -219.401,134.638 -219.747,135.148 -219.912,135.554 -216.62,140.754 -216.182,140.779 -215.573,140.684 -214.973,140.587 -214.381,140.488 -213.797,140.387 -213.222,140.284 -212.655,140.179 -212.097,140.072 -211.547,139.963 -211.005,139.853 -210.472,139.742 -209.947,139.629 -209.431,139.514 -208.923,139.399 -208.424,139.282 -207.933,139.164 -207.451,139.045 -206.976,138.925 -206.511,138.805 -206.053,138.684 -205.604,138.562 -205.164,138.44 -204.732,138.317 -204.308,138.195 -203.892,138.072 -203.485,137.948 -203.086,137.825 -202.696,137.702 -202.313,137.579 -201.939,137.456 -201.574,137.334 -201.216,137.212 -200.867,137.091 -200.526,136.97 -200.193,136.85 -199.868,136.731 -199.552,136.612 -199.244,136.495 -198.943,136.379 -198.651,136.264 -197.742,136.742 -194.501,141.313 -194.351,142.329 -194.557,142.567 -194.766,142.812 -194.979,143.064 -195.195,143.323 -195.415,143.59 -195.639,143.865 -195.865,144.146 -196.096,144.436 -196.329,144.733 -196.565,145.037 -196.805,145.35 -197.048,145.67 -197.293,145.997 -197.541,146.333 -197.792,146.676 -198.046,147.028 -198.302,147.387 -198.561,147.754 -198.822,148.129 -199.086,148.513 -199.351,148.904 -199.619,149.304 -199.889,149.712 -200.161,150.128 -200.435,150.552 -200.71,150.984 -200.988,151.425 -201.267,151.875 -201.547,152.332 -201.829,152.798 -202.112,153.273 -202.397,153.756 -202.682,154.247 -202.969,154.747 -203.257,155.256 -203.546,155.773 -203.835,156.299 -204.125,156.834 -204.416,157.377 -204.538,157.798 -200.721,162.626 -200.283,162.605 -199.687,162.447 -199.1,162.288 -198.521,162.127 -197.952,161.966 -197.39,161.803 -196.837,161.639 -196.293,161.475 -195.758,161.309 -195.231,161.143 -194.712,160.976 -194.202,160.809 -193.701,160.641 -193.208,160.473 -192.723,160.305 -192.247,160.136 -191.78,159.968 -191.321,159.799 -190.87,159.631 -190.428,159.463 -189.994,159.295 -189.569,159.127 -189.152,158.96 -188.743,158.794 -188.343,158.628 -187.951,158.463 -187.567,158.299 -187.192,158.135 -186.824,157.973 -186.465,157.812 -186.114,157.652 -185.771,157.493 -185.437,157.336 -185.11,157.18 -184.792,157.026 -184.481,156.874 -184.179,156.723 -183.884,156.574 -183.598,156.427 -183.319,156.282 -182.365,156.662 -178.664,160.87 -178.409,161.865 -178.589,162.123 -178.771,162.388 -178.956,162.661 -179.144,162.942 -179.335,163.23 -179.529,163.526 -179.725,163.83 -179.924,164.142 -180.125,164.462 -180.328,164.79 -180.534,165.125 -180.742,165.469 -180.951,165.82 -181.163,166.18 -181.377,166.548 -181.593,166.924 -181.81,167.308 -182.029,167.7 -182.249,168.101 -182.471,168.509 -182.695,168.926 -182.919,169.352 -183.145,169.786 -183.372,170.228 -183.6,170.678 -183.829,171.137 -184.058,171.605 -184.289,172.081 -184.52,172.565 -184.751,173.058 -184.984,173.56 -185.216,174.07 -185.449,174.588 -185.682,175.116 -185.915,175.652 -186.148,176.196 -186.381,176.749 -186.613,177.311 -186.846,177.882 -186.923,178.314 -182.622,182.716 -182.189,182.649 -181.613,182.43 -181.046,182.21 -180.487,181.99 -179.937,181.77 -179.396,181.55 -178.863,181.329 -178.339,181.109 -177.824,180.888 -177.317,180.668 -176.819,180.448 -176.329,180.228 -175.848,180.009 -175.375,179.79 -174.911,179.572 -174.455,179.355 -174.008,179.138 -173.569,178.922 -173.139,178.708 -172.717,178.494 -172.303,178.282 -171.897,178.071 -171.5,177.861 -171.111,177.653 -170.73,177.446 -170.357,177.241 -169.993,177.037 -169.636,176.836 -169.288,176.636 -168.948,176.438 -168.616,176.243 -168.291,176.049 -167.975,175.858 -167.666,175.669 -167.366,175.482 -167.073,175.298 -166.788,175.116 -166.511,174.937 -166.241,174.761 -165.979,174.588 -164.991,174.866 -160.87,178.664 -160.512,179.627 -160.664,179.902 -160.817,180.185 -160.973,180.476 -161.131,180.775 -161.291,181.082 -161.452,181.396 -161.616,181.719 -161.78,182.05 -161.947,182.389 -162.115,182.736 -162.285,183.091 -162.455,183.455 -162.627,183.827 -162.8,184.206 -162.975,184.594 -163.15,184.991 -163.326,185.396 -163.502,185.809 -163.68,186.23 -163.858,186.66 -164.036,187.098 -164.215,187.544 -164.394,187.999 -164.574,188.463 -164.753,188.935 -164.933,189.415 -165.112,189.904 -165.292,190.401 -165.471,190.907 -165.65,191.422 -165.828,191.945 -166.006,192.476 -166.183,193.017 -166.36,193.565 -166.536,194.123 -166.71,194.689 -166.884,195.263 -167.057,195.847 -167.229,196.438 -167.26,196.876 -162.523,200.805 -162.099,200.693 -161.549,200.414 -161.008,200.137 -160.475,199.86 -159.951,199.583 -159.436,199.307 -158.929,199.032 -158.431,198.758 -157.942,198.485 -157.461,198.213 -156.988,197.942 -156.524,197.672 -156.069,197.404 -155.622,197.137 -155.183,196.871 -154.752,196.608 -154.33,196.345 -153.916,196.085 -153.51,195.827 -153.113,195.57 -152.723,195.316 -152.342,195.063 -151.969,194.813 -151.604,194.565 -151.247,194.32 -150.897,194.077 -150.556,193.837 -150.223,193.599 -149.897,193.364 -149.579,193.132 -149.269,192.902 -148.967,192.676 -148.672,192.452 -148.385,192.232 -148.106,192.015 -147.834,191.801 -147.57,191.591 -147.313,191.384 -147.063,191.181 -146.82,190.981 -145.808,191.155 -141.313,194.501 -140.857,195.421 -140.979,195.71 -141.102,196.008 -141.226,196.314 -141.352,196.627 -141.479,196.949 -141.607,197.279 -141.735,197.617 -141.865,197.964 -141.995,198.318 -142.126,198.681 -142.257,199.052 -142.389,199.431 -142.521,199.819 -142.654,200.215 -142.786,200.619 -142.919,201.031 -143.052,201.452 -143.184,201.881 -143.317,202.319 -143.449,202.765 -143.581,203.219 -143.712,203.682 -143.842,204.153 -143.973,204.633 -144.102,205.121 -144.23,205.618 -144.358,206.123 -144.484,206.636 -144.609,207.158 -144.733,207.688 -144.856,208.227 -144.977,208.774 -145.097,209.33 -145.215,209.894 -145.332,210.467 -145.447,211.048 -145.56,211.638 -145.67,212.236 -145.779,212.842 -145.765,213.281 -140.643,216.693 -140.233,216.537 -139.715,216.203 -139.206,215.87 -138.705,215.539 -138.213,215.209 -137.729,214.881 -137.254,214.554 -136.788,214.23 -136.329,213.907 -135.879,213.586 -135.438,213.267 -135.005,212.95 -134.579,212.636 -134.163,212.324 -133.754,212.014 -133.353,211.707 -132.961,211.402 -132.576,211.1 -132.2,210.8 -131.831,210.503 -131.471,210.21 -131.118,209.919 -130.773,209.631 -130.436,209.347 -130.106,209.065 -129.784,208.787 -129.47,208.512 -129.163,208.241 -128.864,207.973 -128.572,207.709 -128.288,207.448 -128.011,207.192 -127.741,206.939 -127.479,206.69 -127.224,206.445 -126.975,206.204 -126.734,205.967 -126.5,205.734 -126.273,205.506 -126.053,205.282 -125.029,205.349 -120.208,208.207 -119.658,209.074 -119.749,209.375 -119.841,209.683 -119.932,210 -120.025,210.325 -120.117,210.659 -120.21,211 -120.302,211.35 -120.395,211.708 -120.487,212.074 -120.579,212.449 -120.671,212.831 -120.763,213.222 -120.854,213.622 -120.944,214.029 -121.034,214.445 -121.123,214.869 -121.211,215.302 -121.298,215.742 -121.384,216.191 -121.468,216.649 -121.552,217.114 -121.634,217.588 -121.715,218.071 -121.794,218.561 -121.871,219.06 -121.947,219.567 -122.021,220.083 -122.093,220.607 -122.163,221.139 -122.231,221.679 -122.297,222.228 -122.36,222.785 -122.421,223.35 -122.48,223.924 -122.536,224.505 -122.589,225.095 -122.64,225.694 -122.688,226.3 -122.732,226.915 -122.673,227.349 -117.221,230.207 -116.83,230.009 -116.35,229.623 -115.878,229.239 -115.415,228.857 -114.96,228.477 -114.514,228.1 -114.075,227.726 -113.645,227.354 -113.223,226.985 -112.809,226.619 -112.403,226.256 -112.006,225.896 -111.616,225.538 -111.234,225.184 -110.86,224.834 -110.493,224.486 -110.135,224.142 -109.784,223.801 -109.441,223.464 -109.105,223.13 -108.778,222.801 -108.457,222.475 -108.144,222.152 -107.838,221.834 -107.54,221.52 -107.249,221.209 -106.965,220.903 -106.689,220.601 -106.419,220.304 -106.156,220.011 -105.901,219.722 -105.652,219.437 -105.411,219.158 -105.176,218.883 -104.947,218.612 -104.726,218.347 -104.511,218.086 -104.302,217.83 -104.1,217.579 -103.905,217.333 -102.879,217.293 -97.786,219.632 -97.149,220.436 -97.208,220.745 -97.266,221.061 -97.324,221.386 -97.382,221.719 -97.439,222.06 -97.496,222.41 -97.551,222.767 -97.606,223.133 -97.659,223.507 -97.712,223.889 -97.763,224.279 -97.813,224.677 -97.862,225.084 -97.909,225.499 -97.955,225.922 -97.999,226.353 -98.041,226.792 -98.082,227.239 -98.12,227.695 -98.157,228.159 -98.191,228.631 -98.223,229.111 -98.253,229.599 -98.281,230.095 -98.306,230.599 -98.328,231.112 -98.348,231.632 -98.365,232.16 -98.379,232.697 -98.39,233.242 -98.398,233.794 -98.403,234.355 -98.404,234.923 -98.403,235.5 -98.398,236.084 -98.389,236.676 -98.377,237.277 -98.361,237.885 -98.341,238.5 -98.236,238.926 -92.516,241.199 -92.148,240.961 -91.711,240.527 -91.282,240.095 -90.861,239.667 -90.448,239.242 -90.043,238.821 -89.647,238.403 -89.258,237.988 -88.876,237.577 -88.503,237.17 -88.137,236.766 -87.779,236.366 -87.429,235.97 -87.086,235.578 -86.751,235.19 -86.423,234.806 -86.102,234.426 -85.789,234.051 -85.483,233.68 -85.184,233.313 -84.893,232.95 -84.608,232.593 -84.33,232.239 -84.06,231.891 -83.796,231.547 -83.539,231.208 -83.289,230.874 -83.045,230.545 -82.808,230.221 -82.578,229.902 -82.354,229.588 -82.136,229.279 -81.925,228.975 -81.72,228.677 -81.521,228.385 -81.329,228.097 -81.142,227.816 -80.962,227.539 -80.787,227.269 -80.618,227.004 -79.602,226.856 -74.293,228.65 -73.574,229.384 -73.601,229.697 -73.626,230.018 -73.65,230.347 -73.673,230.684 -73.694,231.029 -73.713,231.382 -73.731,231.744 -73.747,232.113 -73.762,232.491 -73.774,232.876 -73.784,233.269 -73.792,233.671 -73.798,234.08 -73.802,234.498 -73.803,234.923 -73.802,235.356 -73.798,235.798 -73.792,236.247 -73.782,236.704 -73.77,237.169 -73.755,237.642 -73.737,238.123 -73.715,238.611 -73.691,239.108 -73.663,239.612 -73.632,240.124 -73.597,240.643 -73.558,241.171 -73.516,241.706 -73.47,242.248 -73.421,242.799 -73.367,243.357 -73.309,243.922 -73.247,244.495 -73.181,245.076 -73.111,245.664 -73.036,246.26 -72.956,246.863 -72.872,247.473 -72.723,247.886 -66.797,249.548 -66.455,249.273 -66.066,248.795 -65.685,248.322 -65.311,247.852 -64.945,247.386 -64.587,246.925 -64.236,246.467 -63.892,246.014 -63.556,245.566 -63.227,245.121 -62.906,244.682 -62.592,244.247 -62.285,243.816 -61.985,243.39 -61.692,242.969 -61.406,242.553 -61.127,242.142 -60.854,241.736 -60.589,241.335 -60.33,240.939 -60.078,240.548 -59.832,240.162 -59.593,239.782 -59.36,239.407 -59.134,239.038 -58.913,238.674 -58.699,238.315 -58.492,237.962 -58.29,237.615 -58.094,237.274 -57.904,236.938 -57.72,236.609 -57.542,236.285 -57.369,235.967 -57.202,235.655 -57.04,235.349 -56.884,235.049 -56.734,234.756 -56.588,234.468 -56.448,234.187 -55.453,233.934 -49.985,235.163 -49.194,235.818 -49.188,236.132 -49.179,236.454 -49.169,236.783 -49.156,237.121 -49.141,237.467 -49.124,237.82 -49.104,238.181 -49.081,238.55 -49.056,238.927 -49.028,239.312 -48.997,239.704 -48.963,240.104 -48.926,240.512 -48.886,240.928 -48.843,241.351 -48.796,241.782 -48.746,242.22 -48.693,242.666 -48.636,243.12 -48.575,243.581 -48.511,244.05 -48.442,244.526 -48.37,245.009 -48.294,245.5 -48.213,245.999 -48.129,246.505 -48.04,247.018 -47.946,247.538 -47.848,248.066 -47.746,248.601 -47.639,249.143 -47.527,249.693 -47.411,250.249 -47.289,250.812 -47.163,251.383 -47.031,251.961 -46.894,252.545 -46.752,253.137 -46.605,253.735 -46.414,254.13 -40.346,255.163 -40.035,254.854 -39.698,254.338 -39.368,253.827 -39.046,253.321 -38.73,252.82 -38.422,252.323 -38.121,251.832 -37.827,251.345 -37.539,250.864 -37.259,250.388 -36.985,249.917 -36.718,249.451 -36.458,248.991 -36.204,248.536 -35.956,248.087 -35.716,247.643 -35.481,247.205 -35.253,246.773 -35.03,246.346 -34.814,245.925 -34.604,245.51 -34.4,245.101 -34.202,244.698 -34.01,244.301 -33.823,243.909 -33.642,243.524 -33.467,243.146 -33.297,242.773 -33.133,242.407 -32.974,242.047 -32.82,241.693 -32.671,241.346 -32.528,241.005 -32.389,240.671 -32.256,240.343 -32.127,240.022 -32.003,239.708 -31.884,239.4 -31.77,239.099 -31.66,238.805 -30.696,238.449 -25.13,239.1 -24.275,239.668 -24.236,239.98 -24.194,240.299 -24.149,240.626 -24.101,240.96 -24.05,241.302 -23.995,241.652 -23.938,242.009 -23.877,242.374 -23.812,242.746 -23.744,243.126 -23.672,243.513 -23.597,243.907 -23.518,244.309 -23.434,244.718 -23.347,245.134 -23.256,245.558 -23.16,245.989 -23.061,246.427 -22.956,246.872 -22.848,247.324 -22.735,247.783 -22.617,248.25 -22.495,248.723 -22.367,249.204 -22.235,249.691 -22.098,250.185 -21.956,250.686 -21.809,251.194 -21.656,251.709 -21.499,252.23 -21.336,252.758 -21.167,253.293 -20.993,253.834 -20.813,254.382 -20.628,254.936 -20.436,255.496 -20.239,256.063 -20.036,256.637 -19.827,257.217 -19.596,257.589 -13.454,257.983 -13.176,257.643 -12.895,257.095 -12.62,256.552 -12.353,256.015 -12.091,255.483 -11.837,254.957 -11.588,254.437 -11.347,253.922 -11.111,253.413 -10.882,252.911 -10.659,252.414 -10.442,251.923 -10.231,251.438 -10.026,250.959 -9.827,250.486 -9.634,250.02 -9.447,249.56 -9.265,249.106 -9.088,248.658 -8.917,248.217 -8.752,247.782 -8.592,247.354 -8.437,246.932 -8.287,246.517 -8.143,246.109 -8.003,245.707 -7.868,245.312 -7.738,244.924 -7.613,244.542 -7.492,244.167 -7.376,243.8 -7.265,243.439 -7.158,243.085 -7.055,242.738 -6.957,242.398 -6.862,242.065 -6.772,241.74 -6.685,241.421 -6.603,241.11 -6.524,240.806 -5.604,240.351 0,240.417 0.91,240.893 0.982,241.198 1.057,241.511 1.136,241.832 1.218,242.16 1.305,242.494 1.396,242.836 1.49,243.186 1.589,243.542 1.692,243.905 1.799,244.276 1.911,244.653 2.027,245.037 2.148,245.429 2.274,245.827 2.404,246.232 2.539,246.643 2.679,247.062 2.824,247.487 2.974,247.919 3.13,248.357 3.29,248.802 3.456,249.254 3.627,249.712 3.804,250.177 3.986,250.647 4.174,251.125 4.368,251.608 4.568,252.098 4.773,252.594 4.984,253.095 5.202,253.604 5.425,254.118 5.655,254.638 5.891,255.164 6.133,255.695 6.382,256.233 6.637,256.776 6.899,257.325 7.168,257.88 7.437,258.226 13.587,257.976 13.827,257.609 14.049,257.034 14.266,256.466 14.476,255.903 14.68,255.347 14.878,254.798 15.071,254.254 15.258,253.717 15.439,253.187 15.614,252.663 15.784,252.145 15.948,251.634 16.107,251.13 16.261,250.632 16.409,250.141 16.553,249.657 16.691,249.18 16.825,248.71 16.953,248.246 17.077,247.789 17.196,247.34 17.311,246.897 17.421,246.462 17.526,246.033 17.627,245.612 17.724,245.197 17.817,244.79 17.906,244.391 17.99,243.998 18.071,243.613 18.148,243.235 18.221,242.865 18.291,242.501 18.357,242.146 18.419,241.797 18.478,241.457 18.534,241.123 18.587,240.798 18.636,240.479 18.682,240.169 19.551,239.62 25.13,239.1 26.085,239.478 26.188,239.774 26.296,240.078 26.408,240.388 26.524,240.706 26.645,241.03 26.771,241.36 26.902,241.698 27.037,242.042 27.178,242.392 27.323,242.749 27.474,243.113 27.63,243.483 27.791,243.86 27.957,244.242 28.129,244.631 28.307,245.027 28.49,245.428 28.678,245.836 28.873,246.25 29.073,246.67 29.279,247.096 29.491,247.527 29.709,247.965 29.934,248.408 30.164,248.858 30.401,249.312 30.644,249.773 30.894,250.239 31.15,250.711 31.413,251.188 31.682,251.671 31.958,252.158 32.241,252.652 32.531,253.15 32.827,253.654 33.131,254.162 33.441,254.676 33.759,255.195 34.084,255.718 34.388,256.034 40.478,255.142 40.678,254.752 40.84,254.158 40.995,253.57 41.146,252.988 41.291,252.414 41.431,251.847 41.565,251.286 41.695,250.732 41.819,250.186 41.939,249.646 42.054,249.114 42.164,248.589 42.269,248.07 42.37,247.56 42.466,247.056 42.559,246.559 42.646,246.07 42.73,245.588 42.809,245.114 42.885,244.647 42.956,244.187 43.024,243.735 43.087,243.29 43.148,242.853 43.204,242.424 43.257,242.002 43.307,241.587 43.353,241.18 43.397,240.781 43.437,240.389 43.474,240.006 43.508,239.629 43.539,239.261 43.567,238.9 43.593,238.547 43.616,238.202 43.637,237.865 43.655,237.536 43.671,237.214 43.685,236.9 44.491,236.264 49.985,235.163 50.974,235.439 51.108,235.724 51.247,236.014 51.39,236.311 51.539,236.614 51.694,236.924 51.854,237.24 52.019,237.562 52.189,237.89 52.366,238.224 52.548,238.564 52.736,238.909 52.929,239.261 53.129,239.619 53.334,239.982 53.546,240.351 53.764,240.726 53.988,241.106 54.218,241.492 54.455,241.883 54.698,242.28 54.947,242.681 55.203,243.089 55.466,243.501 55.736,243.919 56.012,244.341 56.295,244.769 56.585,245.202 56.882,245.639 57.186,246.081 57.497,246.528 57.815,246.98 58.141,247.437 58.474,247.897 58.814,248.363 59.161,248.833 59.516,249.307 59.879,249.785 60.249,250.268 60.627,250.754 60.963,251.037 66.926,249.514 67.084,249.105 67.183,248.496 67.276,247.895 67.365,247.302 67.449,246.715 67.529,246.136 67.604,245.565 67.675,245.001 67.742,244.444 67.804,243.895 67.863,243.353 67.917,242.82 67.968,242.293 68.015,241.775 68.058,241.263 68.098,240.76 68.134,240.264 68.167,239.777 68.196,239.296 68.222,238.824 68.245,238.359 68.265,237.903 68.282,237.454 68.296,237.013 68.308,236.58 68.316,236.154 68.322,235.737 68.326,235.327 68.327,234.926 68.326,234.532 68.323,234.147 68.317,233.769 68.31,233.399 68.3,233.038 68.289,232.684 68.276,232.338 68.261,232.001 68.245,231.671 68.227,231.35 68.208,231.036 68.943,230.319 74.293,228.65 75.305,228.821 75.468,229.09 75.636,229.365 75.81,229.645 75.99,229.931 76.176,230.223 76.368,230.52 76.566,230.823 76.77,231.131 76.98,231.445 77.197,231.764 77.42,232.088 77.649,232.418 77.885,232.753 78.127,233.092 78.376,233.437 78.632,233.787 78.894,234.142 79.164,234.501 79.44,234.866 79.723,235.235 80.013,235.608 80.311,235.987 80.615,236.369 80.927,236.756 81.246,237.148 81.572,237.544 81.905,237.944 82.246,238.348 82.595,238.756 82.951,239.168 83.315,239.584 83.686,240.004 84.066,240.427 84.453,240.855 84.847,241.285 85.25,241.72 85.661,242.158 86.08,242.599 86.506,243.043 86.869,243.29 92.641,241.151 92.755,240.728 92.79,240.113 92.82,239.505 92.846,238.905 92.868,238.313 92.887,237.729 92.902,237.153 92.914,236.585 92.922,236.024 92.927,235.471 92.928,234.927 92.927,234.39 92.922,233.861 92.915,233.341 92.904,232.828 92.891,232.323 92.875,231.826 92.857,231.338 92.836,230.857 92.812,230.385 92.787,229.92 92.759,229.464 92.729,229.016 92.697,228.575 92.663,228.143 92.627,227.72 92.589,227.304 92.55,226.896 92.509,226.497 92.467,226.105 92.424,225.722 92.379,225.347 92.332,224.98 92.285,224.622 92.237,224.271 92.188,223.929 92.138,223.595 92.087,223.268 92.036,222.951 91.984,222.641 92.641,221.851 97.786,219.632 98.811,219.696 99.001,219.946 99.197,220.202 99.399,220.463 99.608,220.728 99.823,220.999 100.045,221.275 100.274,221.555 100.509,221.84 100.751,222.13 101,222.425 101.255,222.724 101.518,223.028 101.787,223.336 102.064,223.649 102.348,223.966 102.639,224.287 102.937,224.613 103.242,224.942 103.555,225.275 103.875,225.613 104.203,225.954 104.538,226.299 104.881,226.648 105.231,227 105.589,227.356 105.955,227.716 106.329,228.079 106.71,228.445 107.099,228.814 107.497,229.187 107.902,229.563 108.315,229.941 108.737,230.323 109.166,230.707 109.604,231.095 110.05,231.485 110.504,231.877 110.966,232.272 111.437,232.67 111.824,232.877 117.34,230.146 117.41,229.713 117.38,229.098 117.346,228.491 117.31,227.891 117.27,227.3 117.228,226.718 117.182,226.143 117.135,225.576 117.084,225.018 117.031,224.468 116.976,223.926 116.918,223.393 116.858,222.867 116.796,222.35 116.732,221.841 116.667,221.341 116.599,220.848 116.529,220.364 116.458,219.888 116.386,219.421 116.312,218.962 116.236,218.511 116.16,218.068 116.082,217.634 116.003,217.208 115.923,216.79 115.842,216.38 115.76,215.979 115.678,215.586 115.595,215.201 115.512,214.825 115.428,214.457 115.344,214.097 115.259,213.745 115.174,213.401 115.09,213.066 115.005,212.739 114.921,212.42 114.837,212.109 114.753,211.806 115.323,210.952 120.208,208.207 121.234,208.164 121.449,208.393 121.671,208.627 121.899,208.865 122.135,209.107 122.377,209.354 122.627,209.605 122.883,209.86 123.147,210.119 123.418,210.382 123.696,210.649 123.982,210.92 124.275,211.195 124.575,211.473 124.883,211.755 125.198,212.041 125.521,212.33 125.851,212.622 126.189,212.918 126.535,213.217 126.889,213.519 127.251,213.824 127.62,214.132 127.997,214.443 128.383,214.757 128.776,215.074 129.177,215.393 129.587,215.715 130.004,216.039 130.43,216.366 130.864,216.695 131.307,217.026 131.757,217.36 132.216,217.695 132.684,218.033 133.159,218.372 133.644,218.713 134.136,219.056 134.638,219.401 135.148,219.747 135.554,219.912 140.754,216.62 140.779,216.182 140.684,215.573 140.587,214.973 140.488,214.381 140.387,213.797 140.284,213.222 140.179,212.655 140.072,212.097 139.963,211.547 139.853,211.005 139.742,210.472 139.629,209.947 139.514,209.431 139.399,208.923 139.282,208.424 139.164,207.933 139.045,207.451 138.925,206.976 138.805,206.511 138.684,206.053 138.562,205.604 138.44,205.164 138.317,204.732 138.195,204.308 138.072,203.892 137.948,203.485 137.825,203.086 137.702,202.696 137.579,202.313 137.456,201.939 137.334,201.574 137.212,201.216 137.091,200.867 136.97,200.526 136.85,200.193 136.731,199.868 136.612,199.552 136.495,199.244 136.379,198.943 136.264,198.651 136.742,197.742 141.313,194.501 142.329,194.351 142.567,194.557 142.812,194.766 143.064,194.979 143.323,195.195 143.59,195.415 143.865,195.639 144.146,195.865 144.436,196.096 144.733,196.329 145.037,196.565 145.35,196.805 145.67,197.048 145.997,197.293 146.333,197.541 146.676,197.792 147.028,198.046 147.387,198.302 147.754,198.561 148.129,198.822 148.513,199.086 148.904,199.351 149.304,199.619 149.712,199.889 150.128,200.161 150.552,200.435 150.984,200.71 151.425,200.988 151.875,201.267 152.332,201.547 152.798,201.829 153.273,202.112 153.756,202.397 154.247,202.682 154.747,202.969 155.256,203.257 155.773,203.546 156.299,203.835 156.834,204.125 157.377,204.416 157.798,204.538 162.626,200.721 162.605,200.283 162.447,199.687 162.288,199.1 162.127,198.521 161.966,197.952 161.803,197.39 161.639,196.837 161.475,196.293 161.309,195.758 161.143,195.231 160.976,194.712 160.809,194.202 160.641,193.701 160.473,193.208 160.305,192.723 160.136,192.247 159.968,191.78 159.799,191.321 159.631,190.87 159.463,190.428 159.295,189.994 159.127,189.569 158.96,189.152 158.794,188.743 158.628,188.343 158.463,187.951 158.299,187.567 158.135,187.192 157.973,186.824 157.812,186.465 157.652,186.114 157.493,185.771 157.336,185.437 157.18,185.11 157.026,184.792 156.874,184.481 156.723,184.179 156.574,183.884 156.427,183.598 156.282,183.319 156.662,182.365 160.87,178.664 161.865,178.409 162.123,178.589 162.388,178.771 162.661,178.956 162.942,179.144 163.23,179.335 163.526,179.529 163.83,179.725 164.142,179.924 164.462,180.125 164.79,180.328 165.125,180.534 165.469,180.742 165.82,180.951 166.18,181.163 166.548,181.377 166.924,181.593 167.308,181.81 167.7,182.029 168.101,182.249 168.509,182.471 168.926,182.695 169.352,182.919 169.786,183.145 170.228,183.372 170.678,183.6 171.137,183.829 171.605,184.058 172.081,184.289 172.565,184.52 173.058,184.751 173.56,184.984 174.07,185.216 174.588,185.449 175.116,185.682 175.652,185.915 176.196,186.148 176.749,186.381 177.311,186.613 177.882,186.846 178.314,186.923 182.716,182.622 182.649,182.189 182.43,181.613 182.21,181.046 181.99,180.487 181.77,179.937 181.55,179.396 181.329,178.863 181.109,178.339 180.888,177.824 180.668,177.317 180.448,176.819 180.228,176.329 180.009,175.848 179.79,175.375 179.572,174.911 179.355,174.455 179.138,174.008 178.922,173.569 178.708,173.139 178.494,172.717 178.282,172.303 178.071,171.897 177.861,171.5 177.653,171.111 177.446,170.73 177.241,170.357 177.037,169.993 176.836,169.636 176.636,169.288 176.438,168.948 176.243,168.616 176.049,168.291 175.858,167.975 175.669,167.666 175.482,167.366 175.298,167.073 175.116,166.788 174.937,166.511 174.761,166.241 174.588,165.979 174.866,164.991 178.664,160.87 179.627,160.512 179.902,160.664 180.185,160.817 180.476,160.973 180.775,161.131 181.082,161.291 181.396,161.452 181.719,161.616 182.05,161.78 182.389,161.947 182.736,162.115 183.091,162.285 183.455,162.455 183.827,162.627 184.206,162.8 184.594,162.975 184.991,163.15 185.396,163.326 185.809,163.502 186.23,163.68 186.66,163.858 187.098,164.036 187.544,164.215 187.999,164.394 188.463,164.574 188.935,164.753 189.415,164.933 189.904,165.112 190.401,165.292 190.907,165.471 191.422,165.65 191.945,165.828 192.476,166.006 193.017,166.183 193.565,166.36 194.123,166.536 194.689,166.71 195.263,166.884 195.847,167.057 196.438,167.229 196.876,167.26 200.805,162.523 200.693,162.099 200.414,161.549 200.137,161.008 199.86,160.475 199.583,159.951 199.307,159.436 199.032,158.929 198.758,158.431 198.485,157.942 198.213,157.461 197.942,156.988 197.672,156.524 197.404,156.069 197.137,155.622 196.871,155.183 196.608,154.752 196.345,154.33 196.085,153.916 195.827,153.51 195.57,153.113 195.316,152.723 195.063,152.342 194.813,151.969 194.565,151.604 194.32,151.247 194.077,150.897 193.837,150.556 193.599,150.223 193.364,149.897 193.132,149.579 192.902,149.269 192.676,148.967 192.452,148.672 192.232,148.385 192.015,148.106 191.801,147.834 191.591,147.57 191.384,147.313 191.181,147.063 190.981,146.82 191.155,145.808 194.501,141.313 195.421,140.857 195.71,140.979 196.008,141.102 196.314,141.226 196.627,141.352 196.949,141.479 197.279,141.607 197.617,141.735 197.964,141.865 198.318,141.995 198.681,142.126 199.052,142.257 199.431,142.389 199.819,142.521 200.215,142.654 200.619,142.786 201.031,142.919 201.452,143.052 201.881,143.184 202.319,143.317 202.765,143.449 203.219,143.581 203.682,143.712 204.153,143.842 204.633,143.973 205.121,144.102 205.618,144.23 206.123,144.358 206.636,144.484 207.158,144.609 207.688,144.733 208.227,144.856 208.774,144.977 209.33,145.097 209.894,145.215 210.467,145.332 211.048,145.447 211.638,145.56 212.236,145.67 212.842,145.779 213.281,145.765 216.693,140.643 216.537,140.233 216.203,139.715 215.87,139.206 215.539,138.705 215.209,138.213 214.881,137.729 214.554,137.254 214.23,136.788 213.907,136.329 213.586,135.879 213.267,135.438 212.95,135.005 212.636,134.579 212.324,134.163 212.014,133.754 211.707,133.353 211.402,132.961 211.1,132.576 210.8,132.2 210.503,131.831 210.21,131.471 209.919,131.118 209.631,130.773 209.347,130.436 209.065,130.106 208.787,129.784 208.512,129.47 208.241,129.163 207.973,128.864 207.709,128.572 207.448,128.288 207.192,128.011 206.939,127.741 206.69,127.479 206.445,127.224 206.204,126.975 205.967,126.734 205.734,126.5 205.506,126.273 205.282,126.053 205.349,125.029 208.207,120.208 209.074,119.658 209.375,119.749 209.683,119.841 210,119.932 210.325,120.025 210.659,120.117 211,120.21 211.35,120.302 211.708,120.395 212.074,120.487 212.449,120.579 212.831,120.671 213.222,120.763 213.622,120.854 214.029,120.944 214.445,121.034 214.869,121.123 215.302,121.211 215.742,121.298 216.191,121.384 216.649,121.468 217.114,121.552 217.588,121.634 218.071,121.715 218.561,121.794 219.06,121.871 219.567,121.947 220.083,122.021 220.607,122.093 221.139,122.163 221.679,122.231 222.228,122.297 222.785,122.36 223.35,122.421 223.924,122.48 224.505,122.536 225.095,122.589 225.694,122.64 226.3,122.688 226.915,122.732 227.349,122.673 230.207,117.221 230.009,116.83 229.623,116.35 229.239,115.878 228.857,115.415 228.477,114.96 228.1,114.514 227.726,114.075 227.354,113.645 226.985,113.223 226.619,112.809 226.256,112.403 225.896,112.006 225.538,111.616 225.184,111.234 224.834,110.86 224.486,110.493 224.142,110.135 223.801,109.784 223.464,109.441 223.13,109.105 222.801,108.778 222.475,108.457 222.152,108.144 221.834,107.838 221.52,107.54 221.209,107.249 220.903,106.965 220.601,106.689 220.304,106.419 220.011,106.156 219.722,105.901 219.437,105.652 219.158,105.411 218.883,105.176 218.612,104.947 218.347,104.726 218.086,104.511 217.83,104.302 217.579,104.1 217.333,103.905 217.293,102.879 219.632,97.786 220.436,97.149 220.745,97.208 221.061,97.266 221.386,97.324 221.719,97.382 222.06,97.439 222.41,97.496 222.767,97.551 223.133,97.606 223.507,97.659 223.889,97.712 224.279,97.763 224.677,97.813 225.084,97.862 225.499,97.909 225.922,97.955 226.353,97.999 226.792,98.041 227.239,98.082 227.695,98.12 228.159,98.157 228.631,98.191 229.111,98.223 229.599,98.253 230.095,98.281 230.599,98.306 231.112,98.328 231.632,98.348 232.16,98.365 232.697,98.379 233.242,98.39 233.794,98.398 234.355,98.403 234.923,98.404 235.5,98.403 236.084,98.398 236.676,98.389 237.277,98.377 237.885,98.361 238.5,98.341 238.926,98.236 241.199,92.516 240.961,92.148 240.527,91.711 240.095,91.282 239.667,90.861 239.242,90.448 238.821,90.043 238.403,89.647 237.988,89.258 237.577,88.876 237.17,88.503 236.766,88.137 236.366,87.779 235.97,87.429 235.578,87.086 235.19,86.751 234.806,86.423 234.426,86.102 234.051,85.789 233.68,85.483 233.313,85.184 232.95,84.893 232.593,84.608 232.239,84.33 231.891,84.06 231.547,83.796 231.208,83.539 230.874,83.289 230.545,83.045 230.221,82.808 229.902,82.578 229.588,82.354 229.279,82.136 228.975,81.925 228.677,81.72 228.385,81.521 228.097,81.329 227.816,81.142 227.539,80.962 227.269,80.787 227.004,80.618 226.856,79.602 228.65,74.293 229.384,73.574 229.697,73.601 230.018,73.626 230.347,73.65 230.684,73.673 231.029,73.694 231.382,73.713 231.744,73.731 232.113,73.747 232.491,73.762 232.876,73.774 233.269,73.784 233.671,73.792 234.08,73.798 234.498,73.802 234.923,73.803 235.356,73.802 235.798,73.798 236.247,73.792 236.704,73.782 237.169,73.77 237.642,73.755 238.123,73.737 238.611,73.715 239.108,73.691 239.612,73.663 240.124,73.632 240.643,73.597 241.171,73.558 241.706,73.516 242.248,73.47 242.799,73.421 243.357,73.367 243.922,73.309 244.495,73.247 245.076,73.181 245.664,73.111 246.26,73.036 246.863,72.956 247.473,72.872 247.886,72.723 249.548,66.797 249.273,66.455 248.795,66.066 248.322,65.685 247.852,65.311 247.386,64.945 246.925,64.587 246.467,64.236 246.014,63.892 245.566,63.556 245.121,63.227 244.682,62.906 244.247,62.592 243.816,62.285 243.39,61.985 242.969,61.692 242.553,61.406 242.142,61.127 241.736,60.854 241.335,60.589 240.939,60.33 240.548,60.078 240.162,59.832 239.782,59.593 239.407,59.36 239.038,59.134 238.674,58.913 238.315,58.699 237.962,58.492 237.615,58.29 237.274,58.094 236.938,57.904 236.609,57.72 236.285,57.542 235.967,57.369 235.655,57.202 235.349,57.04 235.049,56.884 234.756,56.734 234.468,56.588 234.187,56.448 233.934,55.453 235.163,49.985 235.818,49.194 236.132,49.188 236.454,49.179 236.783,49.169 237.121,49.156 237.467,49.141 237.82,49.124 238.181,49.104 238.55,49.081 238.927,49.056 239.312,49.028 239.704,48.997 240.104,48.963 240.512,48.926 240.928,48.886 241.351,48.843 241.782,48.796 242.22,48.746 242.666,48.693 243.12,48.636 243.581,48.575 244.05,48.511 244.526,48.442 245.009,48.37 245.5,48.294 245.999,48.213 246.505,48.129 247.018,48.04 247.538,47.946 248.066,47.848 248.601,47.746 249.143,47.639 249.693,47.527 250.249,47.411 250.812,47.289 251.383,47.163 251.961,47.031 252.545,46.894 253.137,46.752 253.735,46.605 254.13,46.414 255.163,40.346 254.854,40.035 254.338,39.698 253.827,39.368 253.321,39.046 252.82,38.73 252.323,38.422 251.832,38.121 251.345,37.827 250.864,37.539 250.388,37.259 249.917,36.985 249.451,36.718 248.991,36.458 248.536,36.204 248.087,35.956 247.643,35.716 247.205,35.481 246.773,35.253 246.346,35.03 245.925,34.814 245.51,34.604 245.101,34.4 244.698,34.202 244.301,34.01 243.909,33.823 243.524,33.642 243.146,33.467 242.773,33.297 242.407,33.133 242.047,32.974 241.693,32.82 241.346,32.671 241.005,32.528 240.671,32.389 240.343,32.256 240.022,32.127 239.708,32.003 239.4,31.884 239.099,31.77 238.805,31.66 238.449,30.696 239.1,25.13 239.668,24.275 239.98,24.236 240.299,24.194 240.626,24.149 240.96,24.101 241.302,24.05 241.652,23.995 242.009,23.938 242.374,23.877 242.746,23.812 243.126,23.744 243.513,23.672 243.907,23.597 244.309,23.518 244.718,23.434 245.134,23.347 245.558,23.256 245.989,23.16 246.427,23.061 246.872,22.956 247.324,22.848 247.783,22.735 248.25,22.617 248.723,22.495 249.204,22.367 249.691,22.235 250.185,22.098 250.686,21.956 251.194,21.809 251.709,21.656 252.23,21.499 252.758,21.336 253.293,21.167 253.834,20.993 254.382,20.813 254.936,20.628 255.496,20.436 256.063,20.239 256.637,20.036 257.217,19.827 257.589,19.596 257.983,13.454 257.643,13.176 257.095,12.895 256.552,12.62 256.015,12.353 255.483,12.091 254.957,11.837 254.437,11.588 253.922,11.347 253.413,11.111 252.911,10.882 252.414,10.659 251.923,10.442 251.438,10.231 250.959,10.026 250.486,9.827 250.02,9.634 249.56,9.447 249.106,9.265 248.658,9.088 248.217,8.917 247.782,8.752 247.354,8.592 246.932,8.437 246.517,8.287 246.109,8.143 245.707,8.003 245.312,7.868 244.924,7.738 244.542,7.613 244.167,7.492 243.8,7.376 243.439,7.265 243.085,7.158 242.738,7.055 242.398,6.957 242.065,6.862 241.74,6.772 241.421,6.685 241.11,6.603 240.806,6.524 240.351,5.604 "></polygon>
    <g class="guides">
        <polyline fill="none" stroke="#444" stroke-width="0.5" stroke-miterlimit="10" points="10,0 -10,0"></polyline>
        <polyline fill="none" stroke="#444" stroke-width="0.5" stroke-miterlimit="10" points="0,10 0,-10"></polyline>
    </g>
    <circle fill="#c00" class="firstmarker" stroke="none" stroke-miterlimit="10" cx="249.793" cy="-10.173" r="3.271"></circle>
    <g class="geartext">
        <g class="text">
            <polyline fill="none" stroke="#444" stroke-width="0.5" stroke-linecap="square" stroke-miterlimit="1" points="106.37 -181.55 103.77 -183.05 101.15 -184.51 98.51 -185.93 95.85 -187.32 "></polyline>
            <polyline fill="none" stroke="#444" stroke-width="0.5" stroke-linecap="square" stroke-miterlimit="1" points="98.27 -179.25 104.04 -189.77 "></polyline>
            <polyline fill="none" stroke="#444" stroke-width="0.5" stroke-linecap="square" stroke-miterlimit="1" points="109.41 -186.73 105.25 -185.66 101.15 -184.51 97.11 -183.28 93.12 -181.98 "></polyline>
            <polyline fill="none" stroke="#444" stroke-width="0.5" stroke-linecap="square" stroke-miterlimit="1" points="103.34 -176.37 102.29 -180.44 101.15 -184.51 99.92 -188.58 98.59 -192.66 "></polyline>
            <polyline fill="none" stroke="#444" stroke-width="0.5" stroke-linecap="square" stroke-miterlimit="1" points="114.69 -183.53 118.92 -184.4 121.53 -182.68 124.13 -180.93 124.96 -176.69 123.23 -174.25 119.03 -173.51 119.76 -169.35 118.03 -166.9 113.94 -166.09 111.56 -167.7 109.16 -169.27 108.33 -173.35 "></polyline>
            <polyline fill="none" stroke="#444" stroke-width="0.5" stroke-linecap="square" stroke-miterlimit="1" points="116.55 -175.19 119.03 -173.51 "></polyline>
            <polyline fill="none" stroke="#444" stroke-width="0.5" stroke-linecap="square" stroke-miterlimit="1" points="153.12 -157.16 140.56 -144.26 141.58 -149.52 142.48 -154.84 143.26 -160.21 143.91 -165.63 132.11 -152.04 "></polyline>
            <polyline fill="none" stroke="#444" stroke-width="0.5" stroke-linecap="square" stroke-miterlimit="1" points="161.45 -139.58 159.44 -141.86 157.4 -144.12 155.33 -146.35 153.23 -148.55 "></polyline>
            <polyline fill="none" stroke="#444" stroke-width="0.5" stroke-linecap="square" stroke-miterlimit="1" points="156.91 -135.65 154.96 -137.88 152.98 -140.07 150.96 -142.24 148.92 -144.38 "></polyline>
            <polyline fill="none" stroke="#444" stroke-width="0.5" stroke-linecap="square" stroke-miterlimit="1" points="163.04 -133.02 164.92 -130.68 166.76 -128.32 168.58 -125.93 167.92 -121.75 165.5 -119.99 161.36 -120.54 159.63 -122.83 157.86 -125.09 158.39 -129.23 165.36 -134.92 169.62 -134.41 173.9 -133.81 175.79 -131.31 "></polyline>
            <polyline fill="none" stroke="#444" stroke-width="0.5" stroke-linecap="square" stroke-miterlimit="1" points="173.62 -107.9 169.54 -108.74 167.97 -111.15 168.85 -115.22 178.76 -121.99 182.98 -121.08 184.69 -118.46 183.81 -114.23 173.62 -107.9 "></polyline>
            <polyline fill="none" stroke="#444" stroke-width="0.5" stroke-linecap="square" stroke-miterlimit="1" points="188.89 -92.7 190.2 -90 191.46 -87.28 192.69 -84.54 196.64 -82.95 199.4 -84.12 200.93 -88.16 199.65 -91.01 198.33 -93.85 196.97 -96.67 180.82 -88.74 "></polyline>
            <polyline fill="none" stroke="#444" stroke-width="0.5" stroke-linecap="square" stroke-miterlimit="1" points="187.74 -72.97 198.92 -77.31 "></polyline>
            <polyline fill="none" stroke="#444" stroke-width="0.5" stroke-linecap="square" stroke-miterlimit="1" points="201.72 -78.4 204.51 -79.49 "></polyline>
            <polyline fill="none" stroke="#444" stroke-width="0.5" stroke-linecap="square" stroke-miterlimit="1" points="196.16 -57.5 192.46 -59.41 194.44 -63.07 208.71 -67.7 "></polyline>
            <polyline fill="none" stroke="#444" stroke-width="0.5" stroke-linecap="square" stroke-miterlimit="1" points="204.8 -60.03 203.92 -62.95 203 -65.85 202.04 -68.74 201.04 -71.61 "></polyline>
            <polyline fill="none" stroke="#444" stroke-width="0.5" stroke-linecap="square" stroke-miterlimit="1" points="197.42 -39.94 196.83 -42.75 196.2 -45.55 195.53 -48.34 197.72 -51.89 203.53 -53.41 207.18 -51.22 207.89 -48.26 208.55 -45.29 209.18 -42.32 "></polyline>
            <polyline fill="none" stroke="#444" stroke-width="0.5" stroke-linecap="square" stroke-miterlimit="1" points="204.39 -35.31 207.83 -32.86 211.25 -30.32 211.66 -27.31 209.05 -23.95 200.11 -22.92 "></polyline>
            <polyline fill="none" stroke="#444" stroke-width="0.5" stroke-linecap="square" stroke-miterlimit="1" points="198.48 -34.29 216.21 -37.36 "></polyline>
            <polyline fill="none" stroke="#444" stroke-width="0.5" stroke-linecap="square" stroke-miterlimit="1" points="201.4 -2.87 201.42 0 201.4 2.87 201.33 5.74 204.23 8.74 216.22 9.25 219.33 6.26 219.39 3.13 219.42 0 219.39 -3.13 "></polyline>
            <polyline fill="none" stroke="#444" stroke-width="0.5" stroke-linecap="square" stroke-miterlimit="1" points="219.42 0 201.42 0 "></polyline>
            <polyline fill="none" stroke="#444" stroke-width="0.5" stroke-linecap="square" stroke-miterlimit="1" points="211.66 27.31 212.03 24.29 212.35 21.26 212.64 18.23 212.87 15.2 "></polyline>
            <polyline fill="none" stroke="#444" stroke-width="0.5" stroke-linecap="square" stroke-miterlimit="1" points="205.71 26.54 206.07 23.61 206.38 20.67 206.66 17.72 206.89 14.77 "></polyline>
            <polyline fill="none" stroke="#444" stroke-width="0.5" stroke-linecap="square" stroke-miterlimit="1" points="214.42 46.57 215.06 43.51 215.66 40.44 216.21 37.36 216.72 34.27 210.8 33.33 210.3 36.34 209.76 39.33 209.18 42.32 205.62 44.66 199.76 43.38 197.42 39.94 197.97 37.12 198.48 34.29 201.91 31.93 "></polyline>
            <polyline fill="none" stroke="#444" stroke-width="0.5" stroke-linecap="square" stroke-miterlimit="1" points="200.15 64.92 199.2 67.77 198.22 70.6 197.19 73.42 198.92 77.31 201.72 78.4 205.63 76.56 206.7 73.62 207.72 70.67 208.71 67.7 191.59 62.15 "></polyline>
            <polyline fill="none" stroke="#444" stroke-width="0.5" stroke-linecap="square" stroke-miterlimit="1" points="191.59 94.03 192.91 91.28 194.19 88.53 195.43 85.75 196.64 82.95 "></polyline>
            <polyline fill="none" stroke="#444" stroke-width="0.5" stroke-linecap="square" stroke-miterlimit="1" points="186.2 91.38 187.49 88.72 188.73 86.04 189.94 83.34 191.11 80.62 "></polyline>
            <polyline fill="none" stroke="#444" stroke-width="0.5" stroke-linecap="square" stroke-miterlimit="1" points="191.48 100.85 192.66 105 176.86 96.39 "></polyline>
            <polyline fill="none" stroke="#444" stroke-width="0.5" stroke-linecap="square" stroke-miterlimit="1" points="175.46 98.9 176.86 96.39 178.21 93.86 "></polyline>
            <polyline fill="none" stroke="#444" stroke-width="0.5" stroke-linecap="square" stroke-miterlimit="1" points="166.37 113.53 167.97 111.15 169.54 108.74 171.07 106.31 172.57 103.86 177.71 106.96 178.72 111.06 177.12 113.6 175.48 116.11 176.28 120.29 178.76 121.99 182.98 121.08 184.69 118.46 186.36 115.81 185.42 111.6 "></polyline>
            <polyline fill="none" stroke="#444" stroke-width="0.5" stroke-linecap="square" stroke-miterlimit="1" points="161.12 135.33 159.18 137.61 157.2 139.87 155.19 142.1 155.33 146.35 157.51 148.41 161.83 148.17 163.92 145.85 165.99 143.5 168.01 141.12 154.23 129.54 "></polyline>
            <polyline fill="none" stroke="#444" stroke-width="0.5" stroke-linecap="square" stroke-miterlimit="1" points="142.6 142.25 146.85 146.48 148.93 152.86 150.86 159.32 144.51 157.04 138.26 154.62 134.26 150.14 "></polyline>
            <polyline fill="none" stroke="#444" stroke-width="0.5" stroke-linecap="square" stroke-miterlimit="1" points="146.85 146.48 144.74 148.56 142.61 150.61 140.45 152.63 138.26 154.62 "></polyline>
            <polyline fill="none" stroke="#444" stroke-width="0.5" stroke-linecap="square" stroke-miterlimit="1" points="128.15 170.66 130.57 168.82 132.96 166.94 135.33 165.03 137.67 163.08 "></polyline>
            <polyline fill="none" stroke="#444" stroke-width="0.5" stroke-linecap="square" stroke-miterlimit="1" points="124.54 165.86 126.9 164.07 129.22 162.25 131.52 160.39 133.79 158.49 "></polyline>
            <polyline fill="none" stroke="#444" stroke-width="0.5" stroke-linecap="square" stroke-miterlimit="1" points="106.74 170.81 109.16 169.27 111.56 167.7 113.94 166.09 116.3 164.45 119.76 169.35 119.03 173.51 116.55 175.19 114.04 176.83 113.1 180.99 114.69 183.53 118.92 184.4 121.53 182.68 124.13 180.93 124.96 176.69 "></polyline>
            <polyline fill="none" stroke="#444" stroke-width="0.5" stroke-linecap="square" stroke-miterlimit="1" points="95.7 180.63 96.83 176.62 99.34 175.22 103.34 176.37 109.41 186.73 108.21 190.88 105.48 192.4 101.32 191.23 95.7 180.63 "></polyline>
        </g>
    </g>
    <g class="guides gearguides" opacity="0.2">
        <circle class="pitch" fill="none" stroke="#f00" stroke-miterlimit="10" cx="0" cy="0" r="250"></circle>
        <circle class="outer" fill="none" stroke="#ccc" stroke-miterlimit="10" stroke-dasharray="2,2" cx="0" cy="0" r="258.33"></circle>
        <circle class="base" fill="none" stroke="#00f" stroke-miterlimit="10" stroke-dasharray="2,2" cx="0" cy="0" r="234.92"></circle>
    </g>
</svg>
