<!--?xml version="1.0" encoding="utf-8"?--><!-- Generator: Iparigrafika Gear Generator by Abel Vincze http://geargenerator.com/ -->
<svg version="1.2" class="svggear" 
    xmlns="http://www.w3.org/2000/svg" 
    xmlns:xlink="http://www.w3.org/1999/xlink" x="0px" y="0px" width="250px" height="250px" viewBox="-125 -125 250 250" overflow="scroll" xml:space="preserve">
    <polygon id="gearpoly0" data-id="0" class="gear" fill="#ddd" stroke="#444" stroke-width="1" stroke-miterlimit="10" points="71.25,0 89.114,0 89.267,-0.007 89.588,-0.034 90.076,-0.097 90.728,-0.209 91.54,-0.386 92.507,-0.642 93.625,-0.989 94.886,-1.443 96.283,-2.015 97.808,-2.719 99.451,-3.566 101.203,-4.568 103.053,-5.736 104.99,-7.08 107.002,-8.611 109.075,-10.336 111.196,-12.264 113.352,-14.402 115.528,-16.756 117.708,-19.333 119.878,-22.136 122.022,-25.17 121.843,-27.915 121.442,-29.61 120.373,-32.145 117.097,-33.897 113.902,-35.432 110.798,-36.759 107.798,-37.89 104.913,-38.836 102.153,-39.61 99.527,-40.223 97.043,-40.691 94.709,-41.025 92.532,-41.241 90.516,-41.353 88.667,-41.374 86.989,-41.32 85.484,-41.206 84.153,-41.047 82.998,-40.857 82.019,-40.652 81.213,-40.446 80.58,-40.255 80.116,-40.093 79.817,-39.973 79.677,-39.911 63.705,-31.91 50.381,-50.381 63.013,-63.013 63.116,-63.126 63.324,-63.372 63.625,-63.762 64.006,-64.302 64.455,-65.002 64.959,-65.866 65.503,-66.902 66.074,-68.115 66.657,-69.507 67.238,-71.083 67.801,-72.844 68.332,-74.791 68.814,-76.926 69.233,-79.246 69.573,-81.75 69.819,-84.436 69.956,-87.299 69.969,-90.336 69.842,-93.539 69.562,-96.903 69.114,-100.419 68.484,-104.08 66.417,-105.895 64.935,-106.81 62.387,-107.846 58.831,-106.769 55.486,-105.595 52.353,-104.339 49.433,-103.017 46.724,-101.646 44.225,-100.241 41.934,-98.818 39.847,-97.393 37.96,-95.979 36.268,-94.592 34.764,-93.245 33.442,-91.953 32.293,-90.728 31.309,-89.583 30.481,-88.53 29.798,-87.579 29.251,-86.741 28.827,-86.027 28.514,-85.444 28.301,-85 28.173,-84.704 28.119,-84.562 22.482,-67.61 0,-71.25 0,-89.114 -0.007,-89.267 -0.034,-89.588 -0.097,-90.076 -0.209,-90.728 -0.386,-91.54 -0.642,-92.507 -0.989,-93.625 -1.443,-94.886 -2.015,-96.283 -2.719,-97.808 -3.566,-99.451 -4.568,-101.203 -5.736,-103.053 -7.08,-104.99 -8.611,-107.002 -10.336,-109.075 -12.264,-111.196 -14.402,-113.352 -16.756,-115.528 -19.333,-117.708 -22.136,-119.878 -25.17,-122.022 -27.915,-121.843 -29.61,-121.442 -32.145,-120.373 -33.897,-117.097 -35.432,-113.902 -36.759,-110.798 -37.89,-107.798 -38.836,-104.913 -39.61,-102.153 -40.223,-99.527 -40.691,-97.043 -41.025,-94.709 -41.241,-92.532 -41.353,-90.516 -41.374,-88.667 -41.32,-86.989 -41.206,-85.484 -41.047,-84.153 -40.857,-82.998 -40.652,-82.019 -40.446,-81.213 -40.255,-80.58 -40.093,-80.116 -39.973,-79.817 -39.911,-79.677 -31.91,-63.705 -50.381,-50.381 -63.013,-63.013 -63.126,-63.116 -63.372,-63.324 -63.762,-63.625 -64.302,-64.006 -65.002,-64.455 -65.866,-64.959 -66.902,-65.503 -68.115,-66.074 -69.507,-66.657 -71.083,-67.238 -72.844,-67.801 -74.791,-68.332 -76.926,-68.814 -79.246,-69.233 -81.75,-69.573 -84.436,-69.819 -87.299,-69.956 -90.336,-69.969 -93.539,-69.842 -96.903,-69.562 -100.419,-69.114 -104.08,-68.484 -105.895,-66.417 -106.81,-64.935 -107.846,-62.387 -106.769,-58.831 -105.595,-55.486 -104.339,-52.353 -103.017,-49.433 -101.646,-46.724 -100.241,-44.225 -98.818,-41.934 -97.393,-39.847 -95.979,-37.96 -94.592,-36.268 -93.245,-34.764 -91.953,-33.442 -90.728,-32.293 -89.583,-31.309 -88.53,-30.481 -87.579,-29.798 -86.741,-29.251 -86.027,-28.827 -85.444,-28.514 -85,-28.301 -84.704,-28.173 -84.562,-28.119 -67.61,-22.482 -71.25,0 -89.114,0 -89.267,0.007 -89.588,0.034 -90.076,0.097 -90.728,0.209 -91.54,0.386 -92.507,0.642 -93.625,0.989 -94.886,1.443 -96.283,2.015 -97.808,2.719 -99.451,3.566 -101.203,4.568 -103.053,5.736 -104.99,7.08 -107.002,8.611 -109.075,10.336 -111.196,12.264 -113.352,14.402 -115.528,16.756 -117.708,19.333 -119.878,22.136 -122.022,25.17 -121.843,27.915 -121.442,29.61 -120.373,32.145 -117.097,33.897 -113.902,35.432 -110.798,36.759 -107.798,37.89 -104.913,38.836 -102.153,39.61 -99.527,40.223 -97.043,40.691 -94.709,41.025 -92.532,41.241 -90.516,41.353 -88.667,41.374 -86.989,41.32 -85.484,41.206 -84.153,41.047 -82.998,40.857 -82.019,40.652 -81.213,40.446 -80.58,40.255 -80.116,40.093 -79.817,39.973 -79.677,39.911 -63.705,31.91 -50.381,50.381 -63.013,63.013 -63.116,63.126 -63.324,63.372 -63.625,63.762 -64.006,64.302 -64.455,65.002 -64.959,65.866 -65.503,66.902 -66.074,68.115 -66.657,69.507 -67.238,71.083 -67.801,72.844 -68.332,74.791 -68.814,76.926 -69.233,79.246 -69.573,81.75 -69.819,84.436 -69.956,87.299 -69.969,90.336 -69.842,93.539 -69.562,96.903 -69.114,100.419 -68.484,104.08 -66.417,105.895 -64.935,106.81 -62.387,107.846 -58.831,106.769 -55.486,105.595 -52.353,104.339 -49.433,103.017 -46.724,101.646 -44.225,100.241 -41.934,98.818 -39.847,97.393 -37.96,95.979 -36.268,94.592 -34.764,93.245 -33.442,91.953 -32.293,90.728 -31.309,89.583 -30.481,88.53 -29.798,87.579 -29.251,86.741 -28.827,86.027 -28.514,85.444 -28.301,85 -28.173,84.704 -28.119,84.562 -22.482,67.61 0,71.25 0,89.114 0.007,89.267 0.034,89.588 0.097,90.076 0.209,90.728 0.386,91.54 0.642,92.507 0.989,93.625 1.443,94.886 2.015,96.283 2.719,97.808 3.566,99.451 4.568,101.203 5.736,103.053 7.08,104.99 8.611,107.002 10.336,109.075 12.264,111.196 14.402,113.352 16.756,115.528 19.333,117.708 22.136,119.878 25.17,122.022 27.915,121.843 29.61,121.442 32.145,120.373 33.897,117.097 35.432,113.902 36.759,110.798 37.89,107.798 38.836,104.913 39.61,102.153 40.223,99.527 40.691,97.043 41.025,94.709 41.241,92.532 41.353,90.516 41.374,88.667 41.32,86.989 41.206,85.484 41.047,84.153 40.857,82.998 40.652,82.019 40.446,81.213 40.255,80.58 40.093,80.116 39.973,79.817 39.911,79.677 31.91,63.705 50.381,50.381 63.013,63.013 63.126,63.116 63.372,63.324 63.762,63.625 64.302,64.006 65.002,64.455 65.866,64.959 66.902,65.503 68.115,66.074 69.507,66.657 71.083,67.238 72.844,67.801 74.791,68.332 76.926,68.814 79.246,69.233 81.75,69.573 84.436,69.819 87.299,69.956 90.336,69.969 93.539,69.842 96.903,69.562 100.419,69.114 104.08,68.484 105.895,66.417 106.81,64.935 107.846,62.387 106.769,58.831 105.595,55.486 104.339,52.353 103.017,49.433 101.646,46.724 100.241,44.225 98.818,41.934 97.393,39.847 95.979,37.96 94.592,36.268 93.245,34.764 91.953,33.442 90.728,32.293 89.583,31.309 88.53,30.481 87.579,29.798 86.741,29.251 86.027,28.827 85.444,28.514 85,28.301 84.704,28.173 84.562,28.119 67.61,22.482 "></polygon>
    <g class="guides">
        <polyline fill="none" stroke="#444" stroke-width="0.5" stroke-miterlimit="10" points="10,0 -10,0"></polyline>
        <polyline fill="none" stroke="#444" stroke-width="0.5" stroke-miterlimit="10" points="0,10 0,-10"></polyline>
    </g>
</svg>