<!--?xml version="1.0" encoding="utf-8"?--><!-- Generator: Iparigrafika Gear Generator by Abel Vincze http://geargenerator.com/ -->
<svg version="1.2" class="svggear" 
    xmlns="http://www.w3.org/2000/svg" 
    xmlns:xlink="http://www.w3.org/1999/xlink" x="0px" y="0px" width="450px" height="450px" viewBox="-225 -225 450 450" overflow="scroll" xml:space="preserve">
    <polygon id="gearpoly1" data-id="1" class="gear" fill="#ddd" stroke="#444" stroke-width="1" stroke-miterlimit="10" points="171.25,0 178.228,0 178.339,-0.004 178.533,-0.014 178.813,-0.034 179.176,-0.068 179.622,-0.12 180.152,-0.194 180.763,-0.292 181.455,-0.419 182.228,-0.578 183.079,-0.773 184.009,-1.007 185.015,-1.283 186.096,-1.606 187.25,-1.979 188.476,-2.404 189.772,-2.886 191.136,-3.426 192.566,-4.03 194.06,-4.699 195.615,-5.437 197.23,-6.247 198.902,-7.131 200.628,-8.093 202.406,-9.136 204.233,-10.261 206.107,-11.472 208.023,-12.771 209.981,-14.161 211.975,-15.643 214.003,-17.221 216.063,-18.897 218.15,-20.671 220.261,-22.548 222.393,-24.527 223.436,-26.481 222.471,-33.637 220.948,-35.245 218.368,-36.589 215.835,-37.839 213.353,-38.998 210.923,-40.068 208.549,-41.052 206.233,-41.954 203.978,-42.776 201.786,-43.521 199.659,-44.192 197.599,-44.794 195.608,-45.328 193.689,-45.798 191.843,-46.208 190.071,-46.561 188.375,-46.861 186.758,-47.111 185.219,-47.314 183.76,-47.474 182.383,-47.596 181.088,-47.681 179.877,-47.734 178.749,-47.76 177.705,-47.76 176.747,-47.74 175.875,-47.702 175.087,-47.651 174.386,-47.59 173.771,-47.523 173.241,-47.453 172.796,-47.385 172.437,-47.322 172.163,-47.268 171.972,-47.226 171.865,-47.2 165.136,-45.352 158.214,-65.535 164.661,-68.205 164.762,-68.251 164.938,-68.334 165.188,-68.46 165.511,-68.631 165.903,-68.849 166.364,-69.12 166.891,-69.445 167.483,-69.827 168.135,-70.269 168.848,-70.775 169.617,-71.347 170.44,-71.988 171.315,-72.7 172.239,-73.486 173.209,-74.348 174.222,-75.288 175.275,-76.31 176.365,-77.415 177.489,-78.605 178.644,-79.882 179.826,-81.248 181.032,-82.705 182.259,-84.254 183.503,-85.898 184.76,-87.637 186.028,-89.472 187.301,-91.406 188.578,-93.439 189.853,-95.572 191.123,-97.806 192.385,-100.142 193.633,-102.58 194.866,-105.121 196.078,-107.766 196.294,-109.97 192.664,-116.213 190.642,-117.115 187.744,-117.369 184.925,-117.555 182.188,-117.676 179.534,-117.735 176.964,-117.736 174.48,-117.682 172.082,-117.579 169.771,-117.428 167.549,-117.234 165.416,-117.002 163.372,-116.733 161.419,-116.434 159.556,-116.106 157.784,-115.754 156.103,-115.382 154.513,-114.994 153.014,-114.593 151.605,-114.183 150.286,-113.767 149.057,-113.351 147.917,-112.937 146.866,-112.528 145.902,-112.129 145.024,-111.744 144.232,-111.375 143.525,-111.027 142.9,-110.702 142.357,-110.404 141.894,-110.137 141.51,-109.904 141.202,-109.709 140.969,-109.553 140.809,-109.442 140.72,-109.377 135.21,-105.094 121.092,-121.092 126.026,-126.027 126.102,-126.107 126.233,-126.252 126.416,-126.464 126.648,-126.745 126.927,-127.097 127.25,-127.523 127.612,-128.025 128.012,-128.604 128.446,-129.263 128.91,-130.003 129.402,-130.826 129.918,-131.733 130.454,-132.725 131.006,-133.805 131.573,-134.972 132.148,-136.229 132.73,-137.576 133.315,-139.014 133.898,-140.544 134.476,-142.166 135.046,-143.88 135.602,-145.688 136.143,-147.588 136.663,-149.583 137.159,-151.67 137.628,-153.851 138.064,-156.125 138.466,-158.492 138.827,-160.95 139.146,-163.501 139.417,-166.141 139.638,-168.872 139.804,-171.691 139.912,-174.599 139.269,-176.718 133.526,-181.096 131.312,-181.155 128.537,-180.282 125.862,-179.375 123.288,-178.439 120.813,-177.477 118.438,-176.495 116.163,-175.495 113.988,-174.481 111.91,-173.458 109.931,-172.429 108.05,-171.397 106.264,-170.368 104.575,-169.343 102.979,-168.327 101.476,-167.324 100.066,-166.337 98.745,-165.37 97.513,-164.426 96.369,-163.508 95.309,-162.619 94.333,-161.764 93.439,-160.945 92.623,-160.166 91.885,-159.428 91.222,-158.736 90.632,-158.092 90.111,-157.5 89.659,-156.961 89.271,-156.478 88.945,-156.054 88.679,-155.692 88.47,-155.393 88.314,-155.161 88.209,-154.996 88.152,-154.902 84.7,-148.837 65.535,-158.214 68.205,-164.662 68.244,-164.765 68.309,-164.949 68.397,-165.214 68.505,-165.563 68.627,-165.995 68.762,-166.512 68.905,-167.115 69.053,-167.803 69.202,-168.578 69.348,-169.439 69.487,-170.387 69.616,-171.422 69.732,-172.545 69.829,-173.754 69.905,-175.049 69.957,-176.431 69.979,-177.898 69.969,-179.45 69.922,-181.086 69.835,-182.806 69.705,-184.608 69.528,-186.491 69.3,-188.454 69.017,-190.495 68.677,-192.614 68.275,-194.808 67.808,-197.076 67.273,-199.416 66.667,-201.826 65.985,-204.304 65.225,-206.847 64.384,-209.455 63.459,-212.123 62.446,-214.85 61.04,-216.562 54.06,-218.409 51.991,-217.617 49.762,-215.747 47.638,-213.886 45.617,-212.036 43.699,-210.201 41.881,-208.384 40.162,-206.59 38.54,-204.821 37.012,-203.081 35.578,-201.372 34.234,-199.699 32.979,-198.065 31.81,-196.471 30.724,-194.923 29.72,-193.421 28.794,-191.969 27.944,-190.57 27.168,-189.226 26.461,-187.94 25.822,-186.714 25.248,-185.55 24.735,-184.451 24.28,-183.419 23.88,-182.455 23.533,-181.562 23.233,-180.742 22.98,-179.995 22.767,-179.324 22.594,-178.729 22.455,-178.213 22.348,-177.777 22.269,-177.421 22.214,-177.146 22.18,-176.954 22.163,-176.845 21.295,-169.921 0,-171.25 0,-178.228 -0.004,-178.339 -0.014,-178.533 -0.034,-178.813 -0.068,-179.176 -0.12,-179.622 -0.194,-180.152 -0.292,-180.763 -0.419,-181.455 -0.578,-182.228 -0.773,-183.079 -1.007,-184.009 -1.283,-185.015 -1.606,-186.096 -1.979,-187.25 -2.404,-188.476 -2.886,-189.772 -3.426,-191.136 -4.03,-192.566 -4.699,-194.06 -5.437,-195.615 -6.247,-197.23 -7.131,-198.902 -8.093,-200.628 -9.136,-202.406 -10.261,-204.233 -11.472,-206.107 -12.771,-208.023 -14.161,-209.981 -15.643,-211.975 -17.221,-214.003 -18.897,-216.063 -20.671,-218.15 -22.548,-220.261 -24.527,-222.393 -26.481,-223.436 -33.637,-222.471 -35.245,-220.948 -36.589,-218.368 -37.839,-215.835 -38.998,-213.353 -40.068,-210.923 -41.052,-208.549 -41.954,-206.233 -42.776,-203.978 -43.521,-201.786 -44.192,-199.659 -44.794,-197.599 -45.328,-195.608 -45.798,-193.689 -46.208,-191.843 -46.561,-190.071 -46.861,-188.375 -47.111,-186.758 -47.314,-185.219 -47.474,-183.76 -47.596,-182.383 -47.681,-181.088 -47.734,-179.877 -47.76,-178.749 -47.76,-177.705 -47.74,-176.747 -47.702,-175.875 -47.651,-175.087 -47.59,-174.386 -47.523,-173.771 -47.453,-173.241 -47.385,-172.796 -47.322,-172.437 -47.268,-172.163 -47.226,-171.972 -47.2,-171.865 -45.352,-165.136 -65.535,-158.214 -68.205,-164.661 -68.251,-164.762 -68.334,-164.938 -68.46,-165.188 -68.631,-165.511 -68.849,-165.903 -69.12,-166.364 -69.445,-166.891 -69.827,-167.483 -70.269,-168.135 -70.775,-168.848 -71.347,-169.617 -71.988,-170.44 -72.7,-171.315 -73.486,-172.239 -74.348,-173.209 -75.288,-174.222 -76.31,-175.275 -77.415,-176.365 -78.605,-177.489 -79.882,-178.644 -81.248,-179.826 -82.705,-181.032 -84.254,-182.259 -85.898,-183.503 -87.637,-184.76 -89.472,-186.028 -91.406,-187.301 -93.439,-188.578 -95.572,-189.853 -97.806,-191.123 -100.142,-192.385 -102.58,-193.633 -105.121,-194.866 -107.766,-196.078 -109.97,-196.294 -116.213,-192.664 -117.115,-190.642 -117.369,-187.744 -117.555,-184.925 -117.676,-182.188 -117.735,-179.534 -117.736,-176.964 -117.682,-174.48 -117.579,-172.082 -117.428,-169.771 -117.234,-167.549 -117.002,-165.416 -116.733,-163.372 -116.434,-161.419 -116.106,-159.556 -115.754,-157.784 -115.382,-156.103 -114.994,-154.513 -114.593,-153.014 -114.183,-151.605 -113.767,-150.286 -113.351,-149.057 -112.937,-147.917 -112.528,-146.866 -112.129,-145.902 -111.744,-145.024 -111.375,-144.232 -111.027,-143.525 -110.702,-142.9 -110.404,-142.357 -110.137,-141.894 -109.904,-141.51 -109.709,-141.202 -109.553,-140.969 -109.442,-140.809 -109.377,-140.72 -105.094,-135.21 -121.092,-121.092 -126.027,-126.026 -126.107,-126.102 -126.252,-126.233 -126.464,-126.416 -126.745,-126.648 -127.097,-126.927 -127.523,-127.25 -128.025,-127.612 -128.604,-128.012 -129.263,-128.446 -130.003,-128.91 -130.826,-129.402 -131.733,-129.918 -132.725,-130.454 -133.805,-131.006 -134.972,-131.573 -136.229,-132.148 -137.576,-132.73 -139.014,-133.315 -140.544,-133.898 -142.166,-134.476 -143.88,-135.046 -145.688,-135.602 -147.588,-136.143 -149.583,-136.663 -151.67,-137.159 -153.851,-137.628 -156.125,-138.064 -158.492,-138.466 -160.95,-138.827 -163.501,-139.146 -166.141,-139.417 -168.872,-139.638 -171.691,-139.804 -174.599,-139.912 -176.718,-139.269 -181.096,-133.526 -181.155,-131.312 -180.282,-128.537 -179.375,-125.862 -178.439,-123.288 -177.477,-120.813 -176.495,-118.438 -175.495,-116.163 -174.481,-113.988 -173.458,-111.91 -172.429,-109.931 -171.397,-108.05 -170.368,-106.264 -169.343,-104.575 -168.327,-102.979 -167.324,-101.476 -166.337,-100.066 -165.37,-98.745 -164.426,-97.513 -163.508,-96.369 -162.619,-95.309 -161.764,-94.333 -160.945,-93.439 -160.166,-92.623 -159.428,-91.885 -158.736,-91.222 -158.092,-90.632 -157.5,-90.111 -156.961,-89.659 -156.478,-89.271 -156.054,-88.945 -155.692,-88.679 -155.393,-88.47 -155.161,-88.314 -154.996,-88.209 -154.902,-88.152 -148.837,-84.7 -158.214,-65.535 -164.662,-68.205 -164.765,-68.244 -164.949,-68.309 -165.214,-68.397 -165.563,-68.505 -165.995,-68.627 -166.512,-68.762 -167.115,-68.905 -167.803,-69.053 -168.578,-69.202 -169.439,-69.348 -170.387,-69.487 -171.422,-69.616 -172.545,-69.732 -173.754,-69.829 -175.049,-69.905 -176.431,-69.957 -177.898,-69.979 -179.45,-69.969 -181.086,-69.922 -182.806,-69.835 -184.608,-69.705 -186.491,-69.528 -188.454,-69.3 -190.495,-69.017 -192.614,-68.677 -194.808,-68.275 -197.076,-67.808 -199.416,-67.273 -201.826,-66.667 -204.304,-65.985 -206.847,-65.225 -209.455,-64.384 -212.123,-63.459 -214.85,-62.446 -216.562,-61.04 -218.409,-54.06 -217.617,-51.991 -215.747,-49.762 -213.886,-47.638 -212.036,-45.617 -210.201,-43.699 -208.384,-41.881 -206.59,-40.162 -204.821,-38.54 -203.081,-37.012 -201.372,-35.578 -199.699,-34.234 -198.065,-32.979 -196.471,-31.81 -194.923,-30.724 -193.421,-29.72 -191.969,-28.794 -190.57,-27.944 -189.226,-27.168 -187.94,-26.461 -186.714,-25.822 -185.55,-25.248 -184.451,-24.735 -183.419,-24.28 -182.455,-23.88 -181.562,-23.533 -180.742,-23.233 -179.995,-22.98 -179.324,-22.767 -178.729,-22.594 -178.213,-22.455 -177.777,-22.348 -177.421,-22.269 -177.146,-22.214 -176.954,-22.18 -176.845,-22.163 -169.921,-21.295 -171.25,0 -178.228,0 -178.339,0.004 -178.533,0.014 -178.813,0.034 -179.176,0.068 -179.622,0.12 -180.152,0.194 -180.763,0.292 -181.455,0.419 -182.228,0.578 -183.079,0.773 -184.009,1.007 -185.015,1.283 -186.096,1.606 -187.25,1.979 -188.476,2.404 -189.772,2.886 -191.136,3.426 -192.566,4.03 -194.06,4.699 -195.615,5.437 -197.23,6.247 -198.902,7.131 -200.628,8.093 -202.406,9.136 -204.233,10.261 -206.107,11.472 -208.023,12.771 -209.981,14.161 -211.975,15.643 -214.003,17.221 -216.063,18.897 -218.15,20.671 -220.261,22.548 -222.393,24.527 -223.436,26.481 -222.471,33.637 -220.948,35.245 -218.368,36.589 -215.835,37.839 -213.353,38.998 -210.923,40.068 -208.549,41.052 -206.233,41.954 -203.978,42.776 -201.786,43.521 -199.659,44.192 -197.599,44.794 -195.608,45.328 -193.689,45.798 -191.843,46.208 -190.071,46.561 -188.375,46.861 -186.758,47.111 -185.219,47.314 -183.76,47.474 -182.383,47.596 -181.088,47.681 -179.877,47.734 -178.749,47.76 -177.705,47.76 -176.747,47.74 -175.875,47.702 -175.087,47.651 -174.386,47.59 -173.771,47.523 -173.241,47.453 -172.796,47.385 -172.437,47.322 -172.163,47.268 -171.972,47.226 -171.865,47.2 -165.136,45.352 -158.214,65.535 -164.661,68.205 -164.762,68.251 -164.938,68.334 -165.188,68.46 -165.511,68.631 -165.903,68.849 -166.364,69.12 -166.891,69.445 -167.483,69.827 -168.135,70.269 -168.848,70.775 -169.617,71.347 -170.44,71.988 -171.315,72.7 -172.239,73.486 -173.209,74.348 -174.222,75.288 -175.275,76.31 -176.365,77.415 -177.489,78.605 -178.644,79.882 -179.826,81.248 -181.032,82.705 -182.259,84.254 -183.503,85.898 -184.76,87.637 -186.028,89.472 -187.301,91.406 -188.578,93.439 -189.853,95.572 -191.123,97.806 -192.385,100.142 -193.633,102.58 -194.866,105.121 -196.078,107.766 -196.294,109.97 -192.664,116.213 -190.642,117.115 -187.744,117.369 -184.925,117.555 -182.188,117.676 -179.534,117.735 -176.964,117.736 -174.48,117.682 -172.082,117.579 -169.771,117.428 -167.549,117.234 -165.416,117.002 -163.372,116.733 -161.419,116.434 -159.556,116.106 -157.784,115.754 -156.103,115.382 -154.513,114.994 -153.014,114.593 -151.605,114.183 -150.286,113.767 -149.057,113.351 -147.917,112.937 -146.866,112.528 -145.902,112.129 -145.024,111.744 -144.232,111.375 -143.525,111.027 -142.9,110.702 -142.357,110.404 -141.894,110.137 -141.51,109.904 -141.202,109.709 -140.969,109.553 -140.809,109.442 -140.72,109.377 -135.21,105.094 -121.092,121.092 -126.026,126.027 -126.102,126.107 -126.233,126.252 -126.416,126.464 -126.648,126.745 -126.927,127.097 -127.25,127.523 -127.612,128.025 -128.012,128.604 -128.446,129.263 -128.91,130.003 -129.402,130.826 -129.918,131.733 -130.454,132.725 -131.006,133.805 -131.573,134.972 -132.148,136.229 -132.73,137.576 -133.315,139.014 -133.898,140.544 -134.476,142.166 -135.046,143.88 -135.602,145.688 -136.143,147.588 -136.663,149.583 -137.159,151.67 -137.628,153.851 -138.064,156.125 -138.466,158.492 -138.827,160.95 -139.146,163.501 -139.417,166.141 -139.638,168.872 -139.804,171.691 -139.912,174.599 -139.269,176.718 -133.526,181.096 -131.312,181.155 -128.537,180.282 -125.862,179.375 -123.288,178.439 -120.813,177.477 -118.438,176.495 -116.163,175.495 -113.988,174.481 -111.91,173.458 -109.931,172.429 -108.05,171.397 -106.264,170.368 -104.575,169.343 -102.979,168.327 -101.476,167.324 -100.066,166.337 -98.745,165.37 -97.513,164.426 -96.369,163.508 -95.309,162.619 -94.333,161.764 -93.439,160.945 -92.623,160.166 -91.885,159.428 -91.222,158.736 -90.632,158.092 -90.111,157.5 -89.659,156.961 -89.271,156.478 -88.945,156.054 -88.679,155.692 -88.47,155.393 -88.314,155.161 -88.209,154.996 -88.152,154.902 -84.7,148.837 -65.535,158.214 -68.205,164.662 -68.244,164.765 -68.309,164.949 -68.397,165.214 -68.505,165.563 -68.627,165.995 -68.762,166.512 -68.905,167.115 -69.053,167.803 -69.202,168.578 -69.348,169.439 -69.487,170.387 -69.616,171.422 -69.732,172.545 -69.829,173.754 -69.905,175.049 -69.957,176.431 -69.979,177.898 -69.969,179.45 -69.922,181.086 -69.835,182.806 -69.705,184.608 -69.528,186.491 -69.3,188.454 -69.017,190.495 -68.677,192.614 -68.275,194.808 -67.808,197.076 -67.273,199.416 -66.667,201.826 -65.985,204.304 -65.225,206.847 -64.384,209.455 -63.459,212.123 -62.446,214.85 -61.04,216.562 -54.06,218.409 -51.991,217.617 -49.762,215.747 -47.638,213.886 -45.617,212.036 -43.699,210.201 -41.881,208.384 -40.162,206.59 -38.54,204.821 -37.012,203.081 -35.578,201.372 -34.234,199.699 -32.979,198.065 -31.81,196.471 -30.724,194.923 -29.72,193.421 -28.794,191.969 -27.944,190.57 -27.168,189.226 -26.461,187.94 -25.822,186.714 -25.248,185.55 -24.735,184.451 -24.28,183.419 -23.88,182.455 -23.533,181.562 -23.233,180.742 -22.98,179.995 -22.767,179.324 -22.594,178.729 -22.455,178.213 -22.348,177.777 -22.269,177.421 -22.214,177.146 -22.18,176.954 -22.163,176.845 -21.295,169.921 0,171.25 0,178.228 0.004,178.339 0.014,178.533 0.034,178.813 0.068,179.176 0.12,179.622 0.194,180.152 0.292,180.763 0.419,181.455 0.578,182.228 0.773,183.079 1.007,184.009 1.283,185.015 1.606,186.096 1.979,187.25 2.404,188.476 2.886,189.772 3.426,191.136 4.03,192.566 4.699,194.06 5.437,195.615 6.247,197.23 7.131,198.902 8.093,200.628 9.136,202.406 10.261,204.233 11.472,206.107 12.771,208.023 14.161,209.981 15.643,211.975 17.221,214.003 18.897,216.063 20.671,218.15 22.548,220.261 24.527,222.393 26.481,223.436 33.637,222.471 35.245,220.948 36.589,218.368 37.839,215.835 38.998,213.353 40.068,210.923 41.052,208.549 41.954,206.233 42.776,203.978 43.521,201.786 44.192,199.659 44.794,197.599 45.328,195.608 45.798,193.689 46.208,191.843 46.561,190.071 46.861,188.375 47.111,186.758 47.314,185.219 47.474,183.76 47.596,182.383 47.681,181.088 47.734,179.877 47.76,178.749 47.76,177.705 47.74,176.747 47.702,175.875 47.651,175.087 47.59,174.386 47.523,173.771 47.453,173.241 47.385,172.796 47.322,172.437 47.268,172.163 47.226,171.972 47.2,171.865 45.352,165.136 65.535,158.214 68.205,164.661 68.251,164.762 68.334,164.938 68.46,165.188 68.631,165.511 68.849,165.903 69.12,166.364 69.445,166.891 69.827,167.483 70.269,168.135 70.775,168.848 71.347,169.617 71.988,170.44 72.7,171.315 73.486,172.239 74.348,173.209 75.288,174.222 76.31,175.275 77.415,176.365 78.605,177.489 79.882,178.644 81.248,179.826 82.705,181.032 84.254,182.259 85.898,183.503 87.637,184.76 89.472,186.028 91.406,187.301 93.439,188.578 95.572,189.853 97.806,191.123 100.142,192.385 102.58,193.633 105.121,194.866 107.766,196.078 109.97,196.294 116.213,192.664 117.115,190.642 117.369,187.744 117.555,184.925 117.676,182.188 117.735,179.534 117.736,176.964 117.682,174.48 117.579,172.082 117.428,169.771 117.234,167.549 117.002,165.416 116.733,163.372 116.434,161.419 116.106,159.556 115.754,157.784 115.382,156.103 114.994,154.513 114.593,153.014 114.183,151.605 113.767,150.286 113.351,149.057 112.937,147.917 112.528,146.866 112.129,145.902 111.744,145.024 111.375,144.232 111.027,143.525 110.702,142.9 110.404,142.357 110.137,141.894 109.904,141.51 109.709,141.202 109.553,140.969 109.442,140.809 109.377,140.72 105.094,135.21 121.092,121.092 126.027,126.026 126.107,126.102 126.252,126.233 126.464,126.416 126.745,126.648 127.097,126.927 127.523,127.25 128.025,127.612 128.604,128.012 129.263,128.446 130.003,128.91 130.826,129.402 131.733,129.918 132.725,130.454 133.805,131.006 134.972,131.573 136.229,132.148 137.576,132.73 139.014,133.315 140.544,133.898 142.166,134.476 143.88,135.046 145.688,135.602 147.588,136.143 149.583,136.663 151.67,137.159 153.851,137.628 156.125,138.064 158.492,138.466 160.95,138.827 163.501,139.146 166.141,139.417 168.872,139.638 171.691,139.804 174.599,139.912 176.718,139.269 181.096,133.526 181.155,131.312 180.282,128.537 179.375,125.862 178.439,123.288 177.477,120.813 176.495,118.438 175.495,116.163 174.481,113.988 173.458,111.91 172.429,109.931 171.397,108.05 170.368,106.264 169.343,104.575 168.327,102.979 167.324,101.476 166.337,100.066 165.37,98.745 164.426,97.513 163.508,96.369 162.619,95.309 161.764,94.333 160.945,93.439 160.166,92.623 159.428,91.885 158.736,91.222 158.092,90.632 157.5,90.111 156.961,89.659 156.478,89.271 156.054,88.945 155.692,88.679 155.393,88.47 155.161,88.314 154.996,88.209 154.902,88.152 148.837,84.7 158.214,65.535 164.662,68.205 164.765,68.244 164.949,68.309 165.214,68.397 165.563,68.505 165.995,68.627 166.512,68.762 167.115,68.905 167.803,69.053 168.578,69.202 169.439,69.348 170.387,69.487 171.422,69.616 172.545,69.732 173.754,69.829 175.049,69.905 176.431,69.957 177.898,69.979 179.45,69.969 181.086,69.922 182.806,69.835 184.608,69.705 186.491,69.528 188.454,69.3 190.495,69.017 192.614,68.677 194.808,68.275 197.076,67.808 199.416,67.273 201.826,66.667 204.304,65.985 206.847,65.225 209.455,64.384 212.123,63.459 214.85,62.446 216.562,61.04 218.409,54.06 217.617,51.991 215.747,49.762 213.886,47.638 212.036,45.617 210.201,43.699 208.384,41.881 206.59,40.162 204.821,38.54 203.081,37.012 201.372,35.578 199.699,34.234 198.065,32.979 196.471,31.81 194.923,30.724 193.421,29.72 191.969,28.794 190.57,27.944 189.226,27.168 187.94,26.461 186.714,25.822 185.55,25.248 184.451,24.735 183.419,24.28 182.455,23.88 181.562,23.533 180.742,23.233 179.995,22.98 179.324,22.767 178.729,22.594 178.213,22.455 177.777,22.348 177.421,22.269 177.146,22.214 176.954,22.18 176.845,22.163 169.921,21.295 "></polygon>
    <g class="guides">
        <polyline fill="none" stroke="#444" stroke-width="0.5" stroke-miterlimit="10" points="10,0 -10,0"></polyline>
        <polyline fill="none" stroke="#444" stroke-width="0.5" stroke-miterlimit="10" points="0,10 0,-10"></polyline>
    </g>
</svg>